<svg width="330" height="337" viewBox="0 0 330 337" fill="none" xmlns="http://www.w3.org/2000/svg">
<g clip-path="url(#clip0_2207_126)">
<path d="M226.192 218.032C215.523 227.503 202.211 239.289 178.004 239.289H163.569C146.071 239.289 130.161 232.938 118.776 221.408C107.655 210.149 101.529 194.735 101.529 178.003V158.226C101.529 141.494 107.655 126.08 118.776 114.821C130.161 103.291 146.071 96.9398 163.569 96.9398H178.004C202.211 96.9398 215.51 108.726 226.192 118.197C237.27 128.019 246.841 136.498 272.335 136.498C276.224 136.499 280.106 136.189 283.946 135.569C283.946 135.494 283.895 135.425 283.864 135.35C282.335 131.557 280.542 127.877 278.498 124.335L261.452 94.8059C253.766 81.4955 242.713 70.4423 229.403 62.757C216.092 55.0717 200.993 51.0249 185.623 51.0234H151.525C136.155 51.0249 121.056 55.0717 107.746 62.757C94.4354 70.4423 83.3821 81.4955 75.6966 94.8059L58.6506 124.335C50.9663 137.646 46.9209 152.745 46.9209 168.114C46.9209 183.484 50.9663 198.583 58.6506 211.894L75.6966 241.423C83.3824 254.733 94.4359 265.785 107.746 273.469C121.057 281.153 136.156 285.199 151.525 285.199H185.623C200.993 285.199 216.091 281.153 229.402 273.469C242.712 265.785 253.766 254.733 261.452 241.423L278.498 211.894C280.542 208.352 282.335 204.672 283.864 200.879C283.864 200.804 283.92 200.735 283.946 200.659C280.106 200.04 276.224 199.73 272.335 199.731C246.841 199.731 237.27 208.21 226.192 218.032Z" fill="#1F1F1F"/>
<path d="M178.008 114.854H163.573C136.949 114.854 119.451 133.871 119.451 158.216V177.993C119.451 202.338 136.949 221.354 163.573 221.354H178.008C216.807 221.354 213.782 181.815 272.338 181.815C277.89 181.81 283.43 182.317 288.888 183.327C290.665 173.267 290.665 162.973 288.888 152.913C283.43 153.929 277.89 154.437 272.338 154.432C213.763 154.426 216.807 114.854 178.008 114.854Z" fill="#1F1F1F"/>
<path d="M322.538 197.78C312.556 190.485 301.05 185.549 288.885 183.345C288.885 183.446 288.854 183.546 288.835 183.64C287.791 189.474 286.152 195.186 283.946 200.686C293.996 202.241 303.533 206.165 311.768 212.134C311.768 212.222 311.718 212.31 311.686 212.404C307.019 227.56 299.966 241.876 290.793 254.812C281.725 267.628 270.714 278.952 258.157 288.377C227.76 311.244 189.818 321.726 151.993 317.705C114.168 313.684 79.2773 295.46 54.3667 266.714C29.456 237.967 16.3811 200.839 17.782 162.827C19.1829 124.814 34.9552 88.7493 61.9142 61.9142C80.2288 43.6134 102.961 30.355 127.908 23.4246C152.854 16.4942 179.168 16.1269 204.298 22.3582C229.428 28.5896 252.521 41.2082 271.34 58.9907C290.158 76.7732 304.062 99.1162 311.705 123.854C311.736 123.948 311.762 124.036 311.787 124.123C303.546 130.093 294.002 134.015 283.946 135.565C286.152 141.07 287.792 146.786 288.841 152.623C288.841 152.718 288.841 152.812 288.885 152.9C301.052 150.701 312.559 145.765 322.538 138.464C332.134 131.366 330.276 123.345 328.814 118.6C307.669 49.908 243.722 0 168.113 0C75.2699 0 0 75.2699 0 168.113C0 260.956 75.2699 336.232 168.113 336.232C243.722 336.232 307.669 286.324 328.782 217.651C330.276 212.906 332.134 204.885 322.538 197.78Z" fill="#1F1F1F"/>
<path d="M283.945 135.561C280.105 136.18 276.223 136.491 272.334 136.49C246.84 136.49 237.269 128.011 226.191 118.189C215.522 108.718 202.21 96.9316 178.003 96.9316H163.568C146.07 96.9316 130.16 103.283 118.775 114.812C107.654 126.072 101.528 141.486 101.528 158.218V177.994C101.528 194.727 107.654 210.141 118.775 221.4C130.16 232.93 146.07 239.281 163.568 239.281H178.003C202.21 239.281 215.509 227.494 226.191 218.024C237.269 208.202 246.84 199.722 272.334 199.722C276.223 199.722 280.105 200.032 283.945 200.651C286.151 195.151 287.79 189.439 288.834 183.605C288.834 183.511 288.871 183.411 288.884 183.31C283.425 182.3 277.885 181.793 272.334 181.798C213.758 181.798 216.802 221.338 178.003 221.338H163.568C136.945 221.338 119.447 202.321 119.447 177.976V158.225C119.447 133.879 136.945 114.863 163.568 114.863H178.003C216.802 114.863 213.777 154.402 272.334 154.402C277.886 154.408 283.426 153.899 288.884 152.884C288.884 152.796 288.884 152.702 288.84 152.607C287.79 146.774 286.15 141.063 283.945 135.561Z" fill="white"/>
<path d="M283.945 135.561C280.105 136.18 276.223 136.491 272.334 136.49C246.84 136.49 237.269 128.011 226.191 118.189C215.522 108.718 202.21 96.9316 178.003 96.9316H163.568C146.07 96.9316 130.16 103.283 118.775 114.812C107.654 126.072 101.528 141.486 101.528 158.218V177.994C101.528 194.727 107.654 210.141 118.775 221.4C130.16 232.93 146.07 239.281 163.568 239.281H178.003C202.21 239.281 215.509 227.494 226.191 218.024C237.269 208.202 246.84 199.722 272.334 199.722C276.223 199.722 280.105 200.032 283.945 200.651C286.151 195.151 287.79 189.439 288.834 183.605C288.834 183.511 288.871 183.411 288.884 183.31C283.425 182.3 277.885 181.793 272.334 181.798C213.758 181.798 216.802 221.338 178.003 221.338H163.568C136.945 221.338 119.447 202.321 119.447 177.976V158.225C119.447 133.879 136.945 114.863 163.568 114.863H178.003C216.802 114.863 213.777 154.402 272.334 154.402C277.886 154.408 283.426 153.899 288.884 152.884C288.884 152.796 288.884 152.702 288.84 152.607C287.79 146.774 286.15 141.063 283.945 135.561Z" fill="white"/>
</g>
<defs>
<clipPath id="clip0_2207_126">
<rect width="330" height="336.232" fill="white"/>
</clipPath>
</defs>
</svg>
