<svg width="330" height="330" viewBox="0 0 330 330" fill="none" xmlns="http://www.w3.org/2000/svg">
<path d="M76.0375 29.2818L0 106.557H76.0375V29.2818ZM81.51 29.2818V106.557H186.12V156.744L261.333 95.5568C261.14 78.7818 261.759 64.6193 260.989 47.9818C258.954 32.9943 243.293 27.7693 230.244 29.2818H81.51ZM317.625 59.3943C306.598 63.4505 298.953 73.0755 289.479 79.8818C255.021 108.069 220.976 136.532 186.794 164.994C228.388 200.607 269.844 236.219 311.438 271.694C328.185 280.921 331.073 260.502 329.698 249.144V70.3943C329.691 68.8454 329.369 67.3141 328.751 65.8937C328.133 64.4733 327.233 63.1935 326.105 62.1322C324.977 61.0709 323.644 60.2504 322.189 59.7206C320.733 59.1908 319.185 58.9628 317.639 59.0505L317.625 59.3943ZM0.5225 112.057V217.932H76.56V112.057H0.5225ZM187.206 223.432H82.61V300.707C135.74 300.624 188.994 300.858 241.835 300.583C255.86 299.621 264.083 285.183 262.02 272.121V237.608L186.808 173.258V223.446L187.206 223.432ZM0.5225 223.432C0.7975 243.232 -0.04125 263.032 0.97625 282.694C3.20375 295.729 16.8988 302.357 29.1225 300.707H76.7525V223.432H0.5225Z" fill="#1F1F1F"/>
</svg>
