<svg width="530" height="145" viewBox="0 0 530 145" fill="none" xmlns="http://www.w3.org/2000/svg">
<g clip-path="url(#clip0_63_1140)">
<path d="M11.9471 1.60691C10.6271 2.63691 10.1471 4.0469 9.30709 7.4669C8.45709 10.8869 8.40709 13.2369 7.71709 18.7169C7.02709 24.1869 6.6171 27.9369 5.8471 34.8169C5.0671 41.6969 4.5871 45.7569 3.8471 53.1069C3.1071 60.4469 2.66711 64.4569 2.13711 71.5469C1.59711 78.6469 1.37709 82.3169 1.17709 88.5769C0.987086 94.8369 0.907097 97.7569 1.1571 102.857C1.4071 107.957 1.45709 110.127 2.42709 114.087C3.39709 118.057 3.8871 119.907 6.0071 122.687C8.1271 125.467 9.8271 126.707 13.0371 127.997C16.2471 129.297 18.2671 129.337 22.0471 129.167C25.8371 129.007 27.8071 128.297 31.9571 127.167C36.1071 126.037 38.3371 125.147 42.7871 123.517C47.2371 121.887 49.6371 120.817 54.2171 119.007C58.7871 117.197 61.2071 116.187 65.6471 114.457C70.0971 112.727 72.3671 111.947 76.4371 110.357C80.5071 108.777 82.4271 108.027 85.9871 106.557C89.5571 105.087 91.1971 104.497 94.2671 103.017C97.3371 101.547 98.8371 100.957 101.347 99.1769C103.847 97.3969 104.947 96.3369 106.787 94.1369C108.627 91.9269 109.497 90.7269 110.547 88.1569C111.597 85.5969 112.087 84.0969 112.047 81.3069C112.007 78.5169 111.717 76.7669 110.327 74.1869C108.937 71.6069 107.757 70.1469 105.087 68.3969C102.417 66.6569 100.507 65.7169 96.9871 65.4569C93.4671 65.1869 91.2071 65.6969 87.4971 67.0669C83.7971 68.4369 81.6871 69.6269 78.4571 72.2969C75.2271 74.9769 73.5171 76.7869 71.3571 80.4569C69.1871 84.1169 68.0971 86.4569 67.6271 90.6469C67.1571 94.8369 67.3671 97.4569 68.9871 101.407C70.6171 105.357 72.2871 107.407 75.7471 110.387C79.2171 113.367 81.5871 114.557 86.3171 116.307C91.0471 118.057 93.9371 118.567 99.4071 119.147C104.877 119.737 108.077 119.687 113.667 119.247C119.257 118.797 122.187 118.307 127.367 116.917C132.547 115.527 135.147 114.517 139.557 112.287C143.977 110.047 146.097 108.687 149.427 105.737C152.747 102.787 154.267 101.017 156.207 97.5469C158.137 94.0769 159.017 91.9369 159.087 88.3969C159.167 84.8469 158.477 82.6869 156.577 79.8269C154.677 76.9769 152.927 75.3769 149.607 74.1269C146.287 72.8769 143.767 72.7569 139.977 73.5969C136.177 74.4269 134.007 75.7469 130.647 78.3069C127.287 80.8569 125.447 82.7269 123.177 86.3669C120.907 90.0169 119.737 92.4169 119.297 96.5269C118.857 100.637 119.197 103.287 120.987 106.937C122.777 110.577 124.677 112.387 128.267 114.737C131.847 117.077 134.417 117.837 138.927 118.667C143.437 119.497 146.177 119.437 150.817 118.877C155.457 118.327 158.037 117.677 162.117 115.877C166.197 114.067 168.347 112.807 171.227 109.847C174.107 106.887 175.407 104.807 176.517 101.097C177.637 97.3869 177.707 94.9769 176.807 91.3069C175.917 87.6369 174.567 85.5269 172.027 82.7469C169.497 79.9669 167.317 78.3069 164.127 77.3969C160.937 76.4969 157.887 77.1269 156.087 78.2269C154.287 79.3169 154.287 81.2369 155.127 82.8669C155.967 84.5069 158.277 85.1069 160.287 86.4169C162.307 87.7269 163.597 87.9469 165.187 89.4069C166.777 90.8669 167.567 91.8269 168.237 93.7269C168.907 95.6169 169.047 96.6969 168.527 98.8669C167.997 101.027 167.507 102.467 165.627 104.527C163.747 106.587 162.247 107.747 159.117 109.167C155.987 110.587 153.727 111.197 149.967 111.627C146.207 112.057 143.807 111.977 140.307 111.297C136.807 110.627 134.917 109.817 132.487 108.247C130.057 106.677 129.177 105.577 128.167 103.447C127.157 101.317 127.017 100.077 127.437 97.5869C127.857 95.0969 128.587 93.4169 130.277 91.0069C131.967 88.5869 133.527 87.1269 135.897 85.5069C138.267 83.8769 139.937 83.4369 142.127 82.8869C144.317 82.3269 145.337 82.4369 146.857 82.7369C148.377 83.0369 148.997 83.2869 149.717 84.3769C150.427 85.4569 150.487 86.2269 150.427 88.1669C150.357 90.1069 150.487 91.5369 149.367 94.0869C148.247 96.6269 147.367 98.3069 144.837 100.887C142.317 103.457 140.547 104.867 136.747 106.967C132.947 109.077 130.557 110.097 125.857 111.407C121.157 112.727 118.387 113.187 113.237 113.547C108.087 113.907 105.037 113.857 100.117 113.207C95.2071 112.557 92.5971 111.897 88.6571 110.287C84.7171 108.667 82.9471 107.447 80.4071 105.117C77.8771 102.787 76.9771 101.327 75.9771 98.6469C74.9771 95.9569 74.9471 94.4669 75.4171 91.6869C75.8771 88.9169 76.6271 87.2869 78.2971 84.7769C79.9771 82.2769 81.3671 80.8969 83.7971 79.1869C86.2371 77.4669 87.9771 76.8369 90.4571 76.2069C92.9471 75.5669 94.3071 75.8869 96.2371 76.0069C98.1571 76.1369 98.9071 76.2669 100.087 76.8169C101.277 77.3569 101.617 77.8169 102.157 78.7269C102.707 79.6369 102.847 80.1769 102.817 81.3469C102.787 82.5069 102.637 83.1769 102.017 84.5469C101.407 85.9169 100.987 86.7269 99.7371 88.1869C98.4871 89.6369 97.6671 90.2769 95.7871 91.8169C93.8971 93.3569 92.8771 94.2469 90.3171 95.8869C87.7571 97.5269 86.2571 98.3469 82.9871 100.027C79.7071 101.707 77.8571 102.567 73.9271 104.287C70.0071 105.997 67.7471 106.847 63.3471 108.597C58.9471 110.347 56.4771 111.357 51.9271 113.037C47.3771 114.717 44.9471 115.667 40.5971 116.997C36.2471 118.317 33.9571 118.927 30.1871 119.667C26.4071 120.407 24.5871 120.607 21.7271 120.697C18.8771 120.777 17.8671 120.687 15.9071 120.097C13.9571 119.517 13.4071 119.347 11.9471 117.777C10.4771 116.217 9.6671 115.347 8.5671 112.277C7.4671 109.207 6.9971 107.147 6.4371 102.417C5.8771 97.6969 5.76708 94.7569 5.76708 88.6469C5.76708 82.5369 5.91711 78.8769 6.41711 71.8669C6.90711 64.8569 7.3571 60.8669 8.2571 53.5969C9.1571 46.3269 9.7871 42.2969 10.9071 35.5169C12.0171 28.7369 12.7071 25.0669 13.8071 19.7169C14.9071 14.3669 15.9671 12.2569 16.3971 8.77689C16.8171 5.29689 16.8271 3.7469 15.9371 2.3169C15.0571 0.886902 13.2771 0.576911 11.9471 1.60691Z" fill="#1F1F1F" stroke="#1F1F1F"/>
<path d="M195.579 31.257C194.229 32.147 193.419 33.207 192.769 36.127C192.129 39.047 192.509 41.157 192.359 45.857C192.209 50.557 192.149 53.837 192.019 59.637C191.889 65.437 191.749 68.917 191.709 74.857C191.669 80.797 191.569 83.987 191.829 89.347C192.099 94.717 192.229 97.267 193.029 101.677C193.819 106.087 194.129 108.057 195.789 111.407C197.449 114.757 198.549 116.347 201.329 118.427C204.099 120.497 206.049 121.147 209.669 121.777C213.279 122.407 215.329 122.097 219.409 121.567C223.479 121.037 225.719 120.347 230.019 119.107C234.319 117.867 236.739 116.947 240.909 115.377C245.089 113.817 247.289 112.847 250.899 111.267C254.509 109.697 256.529 109.027 258.959 107.507C261.379 105.987 261.899 104.957 263.029 103.667C264.169 102.377 264.599 101.997 264.619 101.067C264.649 100.137 264.269 99.277 263.179 99.027C262.089 98.767 260.299 98.807 259.159 99.797C258.019 100.797 257.509 101.937 257.459 103.987C257.409 106.037 257.809 107.567 258.919 110.047C260.019 112.527 260.879 114.097 262.979 116.387C265.069 118.677 266.479 119.957 269.389 121.497C272.309 123.047 274.129 123.727 277.539 124.107C280.949 124.497 282.949 124.257 286.449 123.447C289.959 122.627 291.859 121.857 295.069 120.027C298.279 118.207 299.879 116.907 302.509 114.297C305.139 111.697 306.469 110.087 308.219 107.017C309.969 103.937 310.809 102.007 311.249 98.927C311.699 95.857 311.539 93.887 310.449 91.627C309.359 89.357 307.949 88.167 305.799 87.597C303.649 87.017 301.649 87.297 299.679 88.737C297.709 90.187 296.509 91.907 295.949 94.827C295.389 97.737 295.599 100.037 296.869 103.317C298.139 106.607 299.739 108.377 302.299 111.237C304.859 114.097 306.439 115.507 309.659 117.617C312.889 119.727 314.799 120.637 318.419 121.777C322.039 122.927 324.059 123.277 327.759 123.337C331.449 123.407 333.459 123.177 336.879 122.087C340.299 120.997 342.039 120.047 344.859 117.887C347.669 115.727 348.969 114.187 350.939 111.287C352.919 108.387 354.339 106.277 354.729 103.407C355.129 100.537 354.309 98.437 352.909 96.917C351.509 95.397 349.609 95.187 347.729 95.827C345.839 96.457 344.479 97.687 343.469 100.107C342.469 102.517 341.989 104.757 342.689 107.897C343.379 111.037 344.839 113.127 346.959 115.807C349.079 118.497 350.549 119.677 353.289 121.307C356.029 122.947 357.539 123.547 360.669 123.987C363.809 124.437 365.729 124.487 368.949 123.537C372.169 122.587 373.829 121.327 376.779 119.237C379.729 117.137 381.149 115.527 383.689 113.057C386.239 110.577 388.129 109.157 389.489 106.857C390.849 104.547 390.729 102.837 390.479 101.547C390.239 100.257 389.179 99.897 388.259 100.427C387.339 100.947 386.199 101.987 385.889 104.177C385.579 106.377 385.449 108.477 386.699 111.397C387.959 114.317 389.499 116.177 392.169 118.787C394.829 121.397 396.539 122.687 400.029 124.447C403.529 126.207 405.559 126.857 409.629 127.597C413.699 128.327 415.989 128.427 420.389 128.117C424.789 127.807 427.239 127.367 431.639 126.057C436.029 124.737 438.379 123.787 442.369 121.547C446.359 119.317 448.419 117.847 451.579 114.877C454.729 111.907 456.439 110.177 458.139 106.717C459.849 103.257 460.459 101.017 460.109 97.567C459.759 94.117 458.769 92.017 456.399 89.487C454.039 86.947 451.899 85.587 448.279 84.907C444.649 84.227 442.019 84.667 438.289 86.087C434.569 87.507 432.329 88.937 429.659 92.017C426.999 95.107 425.559 97.477 424.949 101.527C424.349 105.577 424.669 108.277 426.639 112.257C428.599 116.237 430.509 118.157 434.759 121.417C439.009 124.677 441.949 126.047 447.869 128.547C453.789 131.047 457.539 132.037 464.349 133.927C471.159 135.807 475.079 136.617 481.929 137.967C488.779 139.307 492.479 139.787 498.609 140.637C504.739 141.497 507.919 141.657 512.569 142.257C517.219 142.847 518.979 143.587 521.839 143.627C524.689 143.667 525.499 143.027 526.849 142.477C528.199 141.927 528.359 141.527 528.599 140.867C528.839 140.217 528.609 139.557 528.029 139.187C527.459 138.817 526.769 138.097 525.719 139.027C524.659 139.957 522.539 143.017 522.749 143.827C522.949 144.647 525.159 144.347 526.749 143.107C528.349 141.857 524.279 139.407 525.719 138.047C527.149 136.677 523.96 139.177 524 139.737C524.03 140.297 526.889 140.157 525.889 140.847C524.899 141.537 529.449 140.207 528.929 139.737C528.419 139.267 528.799 138.637 528.329 138.047C527.859 137.457 527.859 137.227 526.589 136.787C525.319 136.357 524.709 135.947 521.979 135.887C519.249 135.827 517.509 136.507 512.949 136.507C508.389 136.497 505.209 136.447 499.179 135.857C493.149 135.257 489.499 134.817 482.789 133.527C476.089 132.237 472.209 131.357 465.649 129.397C459.099 127.437 455.429 126.277 450.019 123.717C444.619 121.167 441.989 119.527 438.629 116.627C435.259 113.737 434.309 111.937 433.199 109.237C432.089 106.537 432.459 105.327 433.089 103.147C433.719 100.957 434.639 99.887 436.359 98.327C438.069 96.757 439.539 96.037 441.679 95.307C443.809 94.587 445.209 94.677 447.029 94.697C448.839 94.707 449.749 94.687 450.729 95.377C451.719 96.067 451.939 96.597 451.939 98.137C451.939 99.677 451.849 100.787 450.729 103.067C449.609 105.357 448.719 107.087 446.339 109.547C443.969 112.007 442.199 113.457 438.869 115.377C435.529 117.307 433.419 118.147 429.649 119.187C425.879 120.237 423.679 120.507 420.019 120.607C416.349 120.697 414.409 120.457 411.309 119.667C408.209 118.887 406.699 118.197 404.489 116.677C402.279 115.167 401.429 114.147 400.269 112.107C399.109 110.077 399.489 108.647 398.689 106.517C397.879 104.387 397.599 103.187 396.249 101.447C394.899 99.697 393.879 98.697 391.929 97.787C389.979 96.877 388.709 96.497 386.499 96.897C384.289 97.297 382.909 97.947 380.879 99.767C378.839 101.587 378.349 103.747 376.349 105.997C374.349 108.257 373.019 109.467 370.879 111.037C368.739 112.597 367.499 113.047 365.639 113.827C363.789 114.597 363.019 114.937 361.609 114.917C360.199 114.887 359.529 114.637 358.579 113.697C357.629 112.767 357.229 111.987 356.849 110.237C356.479 108.487 357.109 107.037 356.709 104.967C356.319 102.887 355.969 101.537 354.879 99.877C353.789 98.227 352.849 97.327 351.279 96.677C349.699 96.027 348.509 95.917 346.999 96.617C345.489 97.327 344.709 98.317 343.709 100.187C342.719 102.057 343.009 103.917 342.029 105.977C341.049 108.047 340.429 109.047 338.819 110.507C337.209 111.957 336.169 112.497 333.979 113.257C331.779 114.007 330.409 114.277 327.839 114.277C325.279 114.277 323.739 114.097 321.159 113.257C318.579 112.407 317.089 111.687 314.939 110.047C312.789 108.407 311.669 107.207 310.389 105.047C309.109 102.887 309.119 101.277 308.519 99.237C307.929 97.207 307.959 96.257 307.419 94.867C306.869 93.487 306.539 92.947 305.789 92.317C305.039 91.687 304.369 91.537 303.649 91.717C302.939 91.887 302.689 92.147 302.229 93.187C301.769 94.237 301.899 95.127 301.359 96.947C300.829 98.767 300.659 100.127 299.549 102.267C298.449 104.407 297.639 105.787 295.829 107.657C294.009 109.527 292.749 110.437 290.459 111.627C288.169 112.817 286.709 113.177 284.369 113.597C282.029 114.017 280.729 113.977 278.759 113.727C276.779 113.487 275.899 113.237 274.499 112.367C273.099 111.507 272.539 110.727 271.769 109.407C270.999 108.087 270.969 107.197 270.659 105.777C270.349 104.367 270.689 103.517 270.219 102.347C269.759 101.177 269.459 100.837 268.339 99.937C267.229 99.037 265.989 98.427 264.639 97.857C263.299 97.297 262.769 97.167 261.639 97.117C260.509 97.067 260.469 97.137 258.979 97.607C257.479 98.087 256.469 98.167 254.159 99.487C251.839 100.807 250.559 102.417 247.379 104.217C244.209 106.027 242.149 107.007 238.279 108.527C234.419 110.047 232.009 110.817 228.049 111.807C224.089 112.807 221.899 113.187 218.489 113.497C215.079 113.817 213.509 113.717 210.999 113.377C208.489 113.037 207.699 112.877 205.939 111.797C204.179 110.717 203.539 110.257 202.179 107.977C200.819 105.697 200.079 104.177 199.139 100.387C198.189 96.587 197.809 94.097 197.429 89.007C197.059 83.927 197.109 80.757 197.269 74.947C197.429 69.137 197.739 65.667 198.229 59.967C198.719 54.267 199.109 51.057 199.719 46.467C200.339 41.867 201.339 39.967 201.299 37.007C201.259 34.047 200.679 32.807 199.529 31.667C198.389 30.517 196.929 30.367 195.579 31.257Z" fill="#1F1F1F" stroke="#1F1F1F"/>
</g>
<defs>
<clipPath id="clip0_63_1140">
<rect width="530" height="145" fill="white"/>
</clipPath>
</defs>
</svg>
