<svg width="330" height="330" viewBox="0 0 330 330" fill="none" xmlns="http://www.w3.org/2000/svg">
<path fill-rule="evenodd" clip-rule="evenodd" d="M85.2524 0.966797H246.246C291.79 0.966797 328.712 37.8881 328.712 83.433V244.426C328.712 289.971 291.79 326.892 246.246 326.892H85.2524C39.7077 326.892 2.78613 289.971 2.78613 244.426V83.433C2.78613 37.8881 39.7077 0.966797 85.2524 0.966797ZM156.904 146.17C173.618 113.995 194.413 73.964 250.498 73.964C254.773 73.964 258.874 75.6613 261.899 78.6822C264.924 81.7031 266.627 85.8016 266.633 90.077C266.633 92.1947 266.216 94.292 265.405 96.2484C264.594 98.2047 263.404 99.9819 261.906 101.478C260.407 102.975 258.628 104.161 256.67 104.97C254.713 105.778 252.615 106.193 250.498 106.19C216.437 106.19 203.212 126.935 185.488 161.063L174.589 181.651L174.572 181.685C157.857 213.86 137.063 253.89 80.9559 253.89C76.6847 253.884 72.5894 252.185 69.5689 249.164C66.5484 246.144 64.8487 242.049 64.843 237.778C64.843 235.662 65.2589 233.566 66.0688 231.612C66.8788 229.656 68.066 227.88 69.5624 226.384C71.0584 224.888 72.8351 223.701 74.7898 222.891C76.7446 222.081 78.8403 221.665 80.9559 221.665C115.039 221.665 128.264 200.919 145.966 166.792L156.887 146.203L156.904 146.17Z" fill="#1F1F1F"/>
</svg>
