<svg width="399" height="491" viewBox="0 0 399 491" fill="none" xmlns="http://www.w3.org/2000/svg">
<mask id="path-1-outside-1_2236_103" maskUnits="userSpaceOnUse" x="0" y="0" width="399" height="491" fill="black">
<rect fill="white" width="399" height="491"/>
<path d="M176.664 60.9254C197.458 64.2335 188.479 86.9175 189.896 108.656C191.787 131.813 198.876 143.155 196.04 173.873C193.205 205.063 171.938 229.638 167.685 252.322C164.377 270.752 170.048 285.875 170.048 305.251C170.048 318.011 162.487 335.969 162.487 349.674C162.487 370.468 174.774 379.919 198.403 379.919C222.977 379.919 239.045 365.269 239.045 342.113C239.045 330.298 235.737 318.011 237.627 307.614C240.463 293.436 250.387 285.875 252.75 267.444C255.586 245.706 240.463 223.022 246.134 194.194C251.332 166.784 281.105 145.99 277.797 132.758C274.016 118.108 244.244 128.977 241.881 111.964C239.99 98.2595 265.51 93.0611 277.797 82.6642C290.084 72.2674 291.029 55.2544 303.789 55.727C313.713 56.1996 320.33 73.2126 317.967 101.568C315.131 141.265 293.392 174.345 290.557 201.283C287.721 227.747 293.865 245.706 291.029 268.862C289.139 283.985 276.852 314.703 276.852 337.387C276.852 348.256 282.05 364.324 292.92 364.324C301.899 364.324 311.35 351.564 323.638 351.564C334.98 351.564 343.486 362.906 343.486 375.666C343.486 389.843 333.562 405.911 306.625 411.582C271.653 419.144 235.737 410.637 206.909 410.637C175.246 410.637 164.85 426.232 148.309 428.595C133.186 430.958 121.844 424.815 109.085 426.232C96.7976 427.177 91.5992 435.684 77.8942 435.684C64.6619 435.684 55.6828 426.705 55.6828 414.89C55.6828 396.932 74.1136 390.316 94.4347 390.316C118.536 390.316 129.406 379.447 129.406 357.235C129.406 333.606 122.317 305.724 122.317 283.04C122.317 249.959 143.111 236.726 146.419 215.933C148.782 201.283 143.111 190.413 143.583 178.599C144.056 163.949 162.014 144.573 153.508 137.011C146.419 130.395 135.549 147.881 120.899 149.771C104.359 152.134 97.2702 133.231 108.612 119.526C118.064 107.711 136.967 108.656 146.891 93.0611C155.398 79.8287 159.651 58.0899 176.664 60.9254Z"/>
</mask>
<path d="M176.664 60.9254C197.458 64.2335 188.479 86.9175 189.896 108.656C191.787 131.813 198.876 143.155 196.04 173.873C193.205 205.063 171.938 229.638 167.685 252.322C164.377 270.752 170.048 285.875 170.048 305.251C170.048 318.011 162.487 335.969 162.487 349.674C162.487 370.468 174.774 379.919 198.403 379.919C222.977 379.919 239.045 365.269 239.045 342.113C239.045 330.298 235.737 318.011 237.627 307.614C240.463 293.436 250.387 285.875 252.75 267.444C255.586 245.706 240.463 223.022 246.134 194.194C251.332 166.784 281.105 145.99 277.797 132.758C274.016 118.108 244.244 128.977 241.881 111.964C239.99 98.2595 265.51 93.0611 277.797 82.6642C290.084 72.2674 291.029 55.2544 303.789 55.727C313.713 56.1996 320.33 73.2126 317.967 101.568C315.131 141.265 293.392 174.345 290.557 201.283C287.721 227.747 293.865 245.706 291.029 268.862C289.139 283.985 276.852 314.703 276.852 337.387C276.852 348.256 282.05 364.324 292.92 364.324C301.899 364.324 311.35 351.564 323.638 351.564C334.98 351.564 343.486 362.906 343.486 375.666C343.486 389.843 333.562 405.911 306.625 411.582C271.653 419.144 235.737 410.637 206.909 410.637C175.246 410.637 164.85 426.232 148.309 428.595C133.186 430.958 121.844 424.815 109.085 426.232C96.7976 427.177 91.5992 435.684 77.8942 435.684C64.6619 435.684 55.6828 426.705 55.6828 414.89C55.6828 396.932 74.1136 390.316 94.4347 390.316C118.536 390.316 129.406 379.447 129.406 357.235C129.406 333.606 122.317 305.724 122.317 283.04C122.317 249.959 143.111 236.726 146.419 215.933C148.782 201.283 143.111 190.413 143.583 178.599C144.056 163.949 162.014 144.573 153.508 137.011C146.419 130.395 135.549 147.881 120.899 149.771C104.359 152.134 97.2702 133.231 108.612 119.526C118.064 107.711 136.967 108.656 146.891 93.0611C155.398 79.8287 159.651 58.0899 176.664 60.9254Z" fill="white"/>
<path d="M176.664 60.9254L167.6 115.31L167.801 115.343L168.002 115.375L176.664 60.9254ZM189.896 108.656L134.879 112.244L134.908 112.694L134.945 113.142L189.896 108.656ZM196.04 173.873L141.139 168.805L141.135 168.843L141.132 168.881L196.04 173.873ZM167.685 252.322L113.495 242.161L113.455 242.371L113.418 242.581L167.685 252.322ZM237.627 307.614L183.563 296.801L183.469 297.275L183.382 297.751L237.627 307.614ZM252.75 267.444L198.078 260.313L198.071 260.373L198.063 260.433L252.75 267.444ZM246.134 194.194L300.232 204.836L300.268 204.652L300.303 204.467L246.134 194.194ZM277.797 132.758L331.286 119.386L331.235 119.183L331.183 118.981L277.797 132.758ZM241.881 111.964L187.263 119.498L187.267 119.524L187.27 119.549L241.881 111.964ZM277.797 82.6642L242.183 40.5751L242.183 40.5752L277.797 82.6642ZM303.789 55.727L306.412 0.654675L306.121 0.640825L305.83 0.630047L303.789 55.727ZM317.967 101.568L263.022 96.9888L262.995 97.314L262.972 97.6394L317.967 101.568ZM290.557 201.283L345.378 207.156L345.383 207.105L345.389 207.054L290.557 201.283ZM291.029 268.862L345.738 275.701L345.747 275.632L345.755 275.563L291.029 268.862ZM306.625 411.582L295.266 357.63L295.119 357.661L294.973 357.693L306.625 411.582ZM148.309 428.595L140.512 374.015L140.154 374.066L139.798 374.121L148.309 428.595ZM109.085 426.232L113.313 481.205L114.245 481.133L115.173 481.03L109.085 426.232ZM146.419 215.933L91.9876 207.154L91.9781 207.212L91.9689 207.27L146.419 215.933ZM143.583 178.599L198.674 180.802L198.683 180.589L198.689 180.376L143.583 178.599ZM153.508 137.011L115.888 177.318L116.378 177.775L116.878 178.219L153.508 137.011ZM120.899 149.771L113.844 95.0897L113.473 95.1376L113.102 95.1905L120.899 149.771ZM108.612 119.526L151.088 154.678L151.379 154.325L151.665 153.968L108.612 119.526ZM146.891 93.0611L100.513 63.2465L100.445 63.3534L100.376 63.4606L146.891 93.0611ZM176.664 60.9254L168.002 115.375C165.521 114.981 161.194 113.936 156.188 111.13C150.934 108.185 146.195 104 142.516 98.875C138.992 93.9667 137.279 89.3741 136.447 86.3452C135.65 83.4404 135.529 81.4834 135.512 81.2036C135.493 80.8944 135.531 81.2596 135.473 82.817C135.412 84.4551 135.301 86.1884 135.121 89.1548C134.815 94.1973 134.27 102.91 134.879 112.244L189.896 108.656L244.914 105.068C244.814 103.533 244.859 101.258 245.189 95.8302C245.424 91.9478 246.095 83.0678 245.581 74.5551C245.07 66.0989 243.126 49.9372 232.093 34.5689C219.549 17.0946 201.582 9.06149 185.327 6.47544L176.664 60.9254ZM189.896 108.656L134.945 113.142C136.149 127.902 139.623 143.259 140.411 147.819C141.396 153.518 142.034 159.103 141.139 168.805L196.04 173.873L250.941 178.941C252.881 157.924 251.393 142.48 249.07 129.039C246.55 114.46 245.534 112.567 244.848 104.17L189.896 108.656ZM196.04 173.873L141.132 168.881C140.677 173.887 138.591 180.176 132.721 192.362C130.377 197.229 126.186 205.55 123.059 212.644C119.715 220.233 115.689 230.458 113.495 242.161L167.685 252.322L221.875 262.482C221.808 262.843 222.035 261.49 223.963 257.117C226.108 252.249 228.209 248.223 232.067 240.212C238.603 226.643 248.568 205.049 250.948 178.864L196.04 173.873ZM167.685 252.322L113.418 242.581C110.298 259.96 111.687 274.86 112.872 284.896C114.224 296.352 114.913 299.83 114.913 305.251H170.048H225.183C225.183 291.297 223.036 277.524 222.38 271.968C221.557 264.991 221.764 263.114 221.953 262.062L167.685 252.322ZM170.048 305.251H114.913C114.913 303.432 115.139 303.072 114.721 305.252C114.313 307.375 113.72 309.849 112.685 314.118C111.786 317.827 110.486 323.164 109.464 328.661C108.446 334.128 107.352 341.509 107.352 349.674H162.487H217.621C217.621 350.986 217.472 350.983 217.873 348.83C218.268 346.707 218.859 344.187 219.85 340.098C220.705 336.569 222.002 331.305 223.012 326.044C224.011 320.84 225.183 313.45 225.183 305.251H170.048ZM162.487 349.674H107.352C107.352 371.261 114.208 396.768 136.534 415.154C156.719 431.777 180.754 435.054 198.403 435.054V379.919V324.784C192.423 324.784 198.499 323.335 206.633 330.034C211.043 333.665 214.191 338.246 215.981 342.73C217.621 346.838 217.621 349.576 217.621 349.674H162.487ZM198.403 379.919V435.054C221.527 435.054 246.067 428.037 265.378 410.174C285.153 391.882 294.18 367.035 294.18 342.113H239.045H183.91C183.91 341.499 184.028 339.589 185.107 336.948C186.214 334.235 188.038 331.504 190.501 329.225C195.634 324.477 199.853 324.784 198.403 324.784V379.919ZM239.045 342.113H294.18C294.18 336.7 293.805 331.795 293.449 328.024C293.269 326.119 293.074 324.301 292.911 322.797C292.735 321.18 292.604 319.99 292.483 318.791C292.24 316.38 292.187 315.318 292.179 314.856C292.173 314.438 292.231 315.509 291.873 317.477L237.627 307.614L183.382 297.751C180.922 311.282 182.157 323.782 182.772 329.873C183.64 338.464 183.91 339.876 183.91 342.113H239.045ZM237.627 307.614L291.691 318.427C291.188 320.945 289.532 323.615 294.187 314.743C298.391 306.732 305.014 293.357 307.437 274.455L252.75 267.444L198.063 260.433C198.05 260.538 198.047 260.519 198.071 260.421C198.096 260.324 198.115 260.276 198.098 260.322C198.029 260.51 197.775 261.161 196.545 263.505C194.939 266.566 186.903 280.105 183.563 296.801L237.627 307.614ZM252.75 267.444L307.422 274.575C309.092 261.768 307.916 250.393 306.513 241.899C305.23 234.128 303.117 225.561 302.15 221.293C299.695 210.457 299.764 207.213 300.232 204.836L246.134 194.194L192.036 183.552C186.833 210.002 191.628 232.514 194.607 245.662C196.357 253.385 197.14 256.368 197.717 259.865C198.175 262.639 197.826 262.251 198.078 260.313L252.75 267.444ZM246.134 194.194L300.303 204.467C300.171 205.164 300.584 202.857 309.324 191.159C312.163 187.359 318.376 179.313 322.918 171.314C326.59 164.849 337.592 144.613 331.286 119.386L277.797 132.758L224.308 146.13C221.868 136.369 223.133 128.304 224.355 123.76C225.505 119.48 226.967 116.976 227.034 116.857C227.184 116.593 226.926 117.074 225.724 118.758C224.498 120.475 223.141 122.277 220.987 125.16C217.189 130.242 211.276 138.173 205.992 147.323C200.634 156.603 194.796 168.991 191.965 183.92L246.134 194.194ZM277.797 132.758L331.183 118.981C328.147 107.216 322.003 96.8303 313.531 88.6628C305.563 80.9818 297.09 76.7411 290.911 74.3373C284.802 71.961 279.262 70.7459 275.768 70.0766C272.418 69.435 268.814 68.9232 267.543 68.7313C265.565 68.4324 265.443 68.3777 265.864 68.4764C266.274 68.5724 269.039 69.2159 272.752 71.0854C276.714 73.0802 282.507 76.8533 287.621 83.4896C292.939 90.391 295.59 97.889 296.491 104.38L241.881 111.964L187.27 119.549C188.762 130.293 192.861 141.173 200.274 150.794C207.482 160.149 216.019 165.979 223.164 169.576C230.059 173.048 236.446 174.839 240.709 175.838C244.982 176.84 248.944 177.442 251.071 177.763C253.906 178.192 254.429 178.263 255.021 178.377C255.468 178.462 253.683 178.174 250.934 177.105C248.114 176.008 242.606 173.454 236.999 168.05C230.888 162.158 226.502 154.638 224.411 146.535L277.797 132.758ZM241.881 111.964L296.498 104.431C297.503 111.716 296.687 119.242 294.137 126.19C291.723 132.771 288.324 137.309 285.954 139.943C283.646 142.508 281.744 143.904 281.223 144.276C280.65 144.685 280.602 144.662 281.518 144.148C282.427 143.637 283.638 143 285.613 141.992C287.292 141.134 290.005 139.766 292.512 138.439C297.225 135.947 305.554 131.401 313.411 124.753L277.797 82.6642L242.183 40.5752C243.896 39.1255 244.428 39.1286 240.959 40.9632C240.068 41.4343 231.654 45.6823 227.527 48C222.576 50.7799 212.589 56.6211 203.98 66.1899C193.888 77.4063 184.009 95.9092 187.263 119.498L241.881 111.964ZM277.797 82.6642L313.411 124.753C321.88 117.587 327.563 109.972 331.242 104.406C333.063 101.651 334.568 99.1206 335.586 97.3905C336.849 95.242 337.134 94.7296 337.624 93.9309C337.985 93.3413 337.653 93.9424 336.812 95.0299C335.947 96.1477 334.021 98.4736 330.903 101.014C327.627 103.684 323.175 106.475 317.56 108.42C311.905 110.379 306.458 110.998 301.748 110.824L303.789 55.727L305.83 0.630047C288.475 -0.0126972 273.076 5.89065 261.242 15.5349C251.492 23.4811 245.78 32.7639 243.608 36.3083C236.56 47.8074 239.518 42.8303 242.183 40.5751L277.797 82.6642ZM303.789 55.727L301.167 110.799C286.801 110.115 276.266 103.154 270.358 96.8714C265.111 91.2921 263.43 86.3831 263.141 85.5084C262.576 83.7994 263.854 87.0094 263.022 96.9888L317.967 101.568L372.911 106.146C374.442 87.7707 373.594 68.2967 367.83 50.8744C363.278 37.1138 347.146 2.59437 306.412 0.654675L303.789 55.727ZM317.967 101.568L262.972 97.6394C262.154 109.087 258.514 120.972 252.555 137.073C247.932 149.562 238.069 173.241 235.725 195.511L290.557 201.283L345.389 207.054C345.88 202.387 348.304 196.057 355.969 175.347C362.297 158.249 370.943 133.745 372.961 105.496L317.967 101.568ZM290.557 201.283L235.736 195.409C233.721 214.211 234.994 229.853 235.822 240.565C236.699 251.898 236.953 256.856 236.303 262.161L291.029 268.862L345.755 275.563C347.941 257.711 346.541 242.112 345.764 232.061C344.938 221.388 344.557 214.819 345.378 207.156L290.557 201.283ZM291.029 268.862L236.32 262.023C236.349 261.791 236.105 263.406 234.714 268.663C234.099 270.99 233.401 273.517 232.573 276.512C231.772 279.406 230.862 282.695 229.959 286.083C226.683 298.367 221.717 318.032 221.717 337.387H276.852H331.987C331.987 334.057 333.164 327.021 336.505 314.495C337.255 311.681 338.029 308.884 338.853 305.904C339.649 303.025 340.517 299.889 341.319 296.855C342.764 291.391 344.764 283.494 345.738 275.701L291.029 268.862ZM276.852 337.387H221.717C221.717 350.02 224.443 365.327 231.388 379.371C237.483 391.698 255.942 419.459 292.92 419.459V364.324V309.189C304.939 309.189 314.719 313.965 321.074 319.25C326.728 323.951 329.317 328.642 330.232 330.492C331.86 333.784 331.987 335.623 331.987 337.387H276.852ZM292.92 364.324V419.459C307.876 419.459 319.33 414.256 324.869 411.425C330.175 408.714 335.619 405.107 336.603 404.482C338.934 403.001 338.411 403.464 336.881 404.129C334.995 404.948 330.274 406.699 323.638 406.699V351.564V296.429C310.858 296.429 300.347 299.775 292.953 302.987C285.914 306.044 280.164 309.697 277.473 311.406C273.436 313.971 274.066 313.554 274.69 313.235C275.547 312.797 282.453 309.189 292.92 309.189V364.324ZM323.638 351.564V406.699C309.614 406.699 299.691 399.433 294.762 393.273C290.069 387.407 288.351 381.123 288.351 375.666H343.486H398.621C398.621 344.573 376.275 296.429 323.638 296.429V351.564ZM343.486 375.666H288.351C288.351 369.633 290.584 363.922 294.175 359.931C297.686 356.031 299.785 356.679 295.266 357.63L306.625 411.582L317.983 465.534C340.402 460.815 360.932 450.593 376.138 433.697C391.426 416.71 398.621 395.876 398.621 375.666H343.486ZM306.625 411.582L294.973 357.693C285.13 359.821 273.561 360.008 258.296 358.944C246.418 358.116 223.628 355.502 206.909 355.502V410.637V465.772C219.018 465.772 228.601 467.411 250.63 468.947C269.274 470.246 293.148 470.905 318.276 465.472L306.625 411.582ZM206.909 410.637V355.502C180.513 355.502 161.684 362.408 147.826 369.147C144.841 370.599 142.083 372.046 140.276 372.989C138.2 374.071 137.207 374.578 136.426 374.947C135.042 375.602 136.939 374.525 140.512 374.015L148.309 428.595L156.106 483.176C167.95 481.484 177.349 477.572 183.556 474.638C186.57 473.213 189.394 471.737 191.266 470.761C193.405 469.645 194.723 468.958 196.05 468.313C199.442 466.664 201.643 465.772 206.909 465.772V410.637ZM148.309 428.595L139.798 374.121C141.659 373.831 142.598 374.346 136.957 373.397C134.847 373.042 129.602 372.092 124.487 371.53C118.834 370.91 111.448 370.496 102.996 371.435L109.085 426.232L115.173 481.03C112.233 481.357 109.696 480.63 118.664 482.139C125.666 483.317 139.836 485.723 156.821 483.069L148.309 428.595ZM109.085 426.232L104.856 371.26C86.2423 372.692 72.228 380.584 69.6213 381.871C67.7181 382.81 68.6492 382.253 70.4188 381.702C72.666 381.002 75.2994 380.549 77.8942 380.549V435.684V490.819C97.8458 490.819 111.981 483.932 118.421 480.754C124.912 477.551 119.64 480.718 113.313 481.205L109.085 426.232ZM77.8942 435.684V380.549C83.9898 380.549 92.5237 382.799 99.8956 389.836C107.334 396.936 110.818 406.347 110.818 414.89H55.6828H0.548096C0.548096 459.544 36.657 490.819 77.8942 490.819V435.684ZM55.6828 414.89H110.818C110.818 420.329 109.265 427.128 105.103 433.53C101.175 439.571 96.5305 442.804 93.8397 444.271C91.2878 445.663 89.8582 445.844 90.4352 445.731C90.8964 445.64 92.2253 445.451 94.4347 445.451V390.316V335.181C79.7327 335.181 59.5855 337.349 41.037 347.466C19.3442 359.299 0.548096 382.367 0.548096 414.89H55.6828ZM94.4347 390.316V445.451C113.585 445.451 138.929 441.257 159.115 421.903C179.788 402.083 184.541 376.544 184.541 357.235H129.406H74.2711C74.2711 360.138 73.5891 351.139 82.8015 342.307C91.528 333.94 99.3856 335.181 94.4347 335.181V390.316ZM129.406 357.235H184.541C184.541 340.913 182.13 324.133 180.472 312.198C178.554 298.389 177.452 289.807 177.452 283.04H122.317H67.1823C67.1823 298.957 69.6245 315.657 71.2509 327.368C73.1377 340.952 74.2711 349.928 74.2711 357.235H129.406ZM122.317 283.04H177.452C177.452 279.745 177.915 277.755 181.257 271.774C182.351 269.816 183.348 268.139 184.997 265.304C186.452 262.802 188.374 259.465 190.258 255.812C194.072 248.418 198.763 237.829 200.869 224.595L146.419 215.933L91.9689 207.27C92.4202 204.433 93.2721 203.296 92.2564 205.265C90.1037 209.439 89.9617 209.1 84.9979 217.983C77.116 232.087 67.1823 253.253 67.1823 283.04H122.317ZM146.419 215.933L200.85 224.712C203.53 208.097 201.374 194.372 200.006 186.621C199.144 181.739 198.992 181.27 198.706 179.326C198.551 178.272 198.743 179.075 198.674 180.802L143.583 178.599L88.4927 176.395C88.1873 184.03 88.911 190.621 89.6124 195.386C90.1828 199.261 91.2124 204.641 91.4142 205.784C92.173 210.084 91.6707 209.118 91.9876 207.154L146.419 215.933ZM143.583 178.599L198.689 180.376C198.491 186.538 196.771 189.808 197.636 187.672C198.679 185.095 199.119 184.492 202.052 178.079C203.718 174.435 208.253 164.669 210.062 153.304C212.124 140.347 211.851 115.105 190.137 95.8031L153.508 137.011L116.878 178.219C109.33 171.51 104.335 162.817 102.07 153.804C100.022 145.652 100.66 139.134 101.163 135.974C101.675 132.754 102.418 130.779 102.457 130.673C102.535 130.46 102.414 130.814 101.773 132.215C100.966 133.979 100.542 134.829 99.2131 137.678C98.1587 139.937 96.7723 142.963 95.4234 146.295C93.0542 152.148 88.9123 163.334 88.4773 176.821L143.583 178.599ZM153.508 137.011L191.127 96.7048C182.732 88.8697 171.73 82.9991 158.89 81.0637C146.868 79.2515 136.796 81.4222 130.254 83.5741C119.116 87.2379 110.193 93.8007 108.553 94.9409C106.441 96.4105 106.002 96.7401 104.861 97.5132C104.047 98.0645 103.867 98.1536 104.063 98.043C104.237 97.9451 107.819 95.867 113.844 95.0897L120.899 149.771L127.955 204.452C141.304 202.73 151.74 197.757 158.293 194.056C164.378 190.619 170.244 186.352 171.524 185.462C172.702 184.642 172.625 184.732 172.034 185.081C171.55 185.368 168.888 186.948 164.71 188.322C160.413 189.735 152.468 191.611 142.454 190.101C131.623 188.469 122.511 183.499 115.888 177.318L153.508 137.011ZM120.899 149.771L113.102 95.1905C120.091 94.192 129.357 95.1534 138.35 100.44C147.108 105.589 152.713 113.148 155.593 120.453C161.26 134.827 156.916 147.636 151.088 154.678L108.612 119.526L66.1367 84.3736C48.9667 105.121 42.4962 134.233 53.0071 160.895C64.628 190.372 94.7055 209.208 128.697 204.352L120.899 149.771ZM108.612 119.526L151.665 153.968C148.074 158.457 144.522 160.483 144.044 160.749C143.84 160.863 144.049 160.734 145.15 160.231C146.777 159.489 147.209 159.325 150.044 158.06C158.188 154.425 179.003 145.296 193.406 122.662L146.891 93.0611L100.376 63.4606C104.856 56.4219 111.257 54.6175 105.105 57.3628C103.455 58.0993 96.3932 61.065 90.3259 64.4494C83.3356 68.3488 73.8765 74.6867 65.5592 85.0833L108.612 119.526ZM146.891 93.0611L193.27 122.876C197.534 116.241 200.828 109.266 202.391 106.029C203.396 103.947 204.002 102.696 204.574 101.586C205.12 100.527 205.304 100.25 205.204 100.409C205.11 100.557 204.407 101.666 203.016 103.214C201.6 104.79 199.139 107.19 195.464 109.511C191.645 111.922 186.947 113.966 181.564 115.033C176.209 116.094 171.405 115.944 167.6 115.31L176.664 60.9254L185.728 6.54084C168.39 3.65122 151.193 7.05464 136.598 16.2682C123.743 24.3838 116.078 35.0251 111.972 41.5263C107.849 48.0539 104.607 54.9421 103.088 58.089C100.929 62.5601 100.502 63.2648 100.513 63.2465L146.891 93.0611Z" fill="#1F1F1F" mask="url(#path-1-outside-1_2236_103)"/>
</svg>
