<svg width="402" height="112" viewBox="0 0 402 112" fill="none" xmlns="http://www.w3.org/2000/svg">
<path d="M29.0268 0.606538C28.2187 1.05193 27.7924 1.56732 27.347 3.09439C26.9016 4.62147 27.2452 5.53134 26.8062 8.23553C26.3735 10.9461 26.1762 12.8167 25.1709 16.6281C24.1656 20.4457 23.4275 22.7173 21.7795 27.3048C20.1316 31.8924 19.0054 34.5266 16.9247 39.5723C14.8505 44.6116 13.5334 47.494 11.3891 52.5269C9.24483 57.5599 8.01045 60.2387 6.20342 64.7372C4.39638 69.2357 3.51832 71.3799 2.34757 75.0194C1.18317 78.659 0.527805 80.1733 0.368735 82.9411C0.209665 85.7089 0.362366 87.0769 1.54585 88.8649C2.72296 90.6528 4.00825 91.3464 6.27977 91.8745C8.55129 92.4026 9.91929 92.1099 12.9034 91.4991C15.8812 90.8946 17.561 90.2392 21.1814 88.8394C24.8082 87.4396 26.9271 86.307 31.0183 84.5C35.116 82.6866 37.4575 81.6177 41.6569 79.7915C45.8564 77.9718 48.0706 77.0174 52.0219 75.3758C55.9796 73.7342 57.9457 72.9833 61.4198 71.5963C64.8939 70.2092 66.4973 69.592 69.4051 68.4339C72.3065 67.2823 73.5855 66.7478 75.9397 65.8252C78.2939 64.9026 79.3247 64.7563 81.1699 63.8146C83.0151 62.8792 83.8423 62.3193 85.1721 61.1231C86.5019 59.9332 87.03 59.1761 87.819 57.8463C88.6016 56.5164 88.888 55.842 89.0979 54.474C89.3079 53.0996 89.4288 52.2852 88.8689 50.9872C88.3153 49.6892 87.7172 48.7411 86.3174 47.9839C84.9112 47.2204 83.715 46.7941 81.8571 47.1886C80.0055 47.5831 78.9811 48.3402 77.0404 49.9564C75.0998 51.5725 74.1517 52.8197 72.1474 55.2693C70.1432 57.719 68.877 59.2652 67.0254 62.1984C65.1802 65.1253 64.1621 66.7923 62.9087 69.9101C61.6616 73.0342 61.1144 74.7586 60.7899 77.8C60.459 80.8414 60.4463 82.5084 61.2734 85.1172C62.1006 87.7196 62.8959 89.0621 64.9193 90.831C66.949 92.5935 68.4888 93.2425 71.4157 93.9488C74.3426 94.6614 76.086 94.7059 79.5474 94.3687C83.0024 94.0378 84.8858 93.5034 88.7162 92.2753C92.5466 91.0473 94.7163 90.1184 98.6994 88.2286C102.676 86.3389 104.865 85.0536 108.613 82.8202C112.354 80.5869 114.237 79.3016 117.419 77.0555C120.594 74.8095 122.064 73.5814 124.494 71.5963C126.925 69.6174 128.286 68.8921 129.559 67.1359C130.832 65.3798 131.022 64.3045 130.851 62.822C130.679 61.3331 130.03 60.4486 128.694 59.7169C127.364 58.9852 126.059 58.5716 124.189 59.1634C122.324 59.7615 121.345 60.8495 119.359 62.7011C117.374 64.5463 116.184 65.9334 114.269 68.4021C112.36 70.8709 111.285 72.4171 109.809 75.0449C108.326 77.6727 107.582 79.028 106.869 81.5413C106.163 84.0482 105.788 85.4735 106.252 87.605C106.71 89.7302 107.569 90.831 109.192 92.1926C110.814 93.5479 112.112 94.1651 114.358 94.4005C116.604 94.6296 117.972 94.2224 120.416 93.3507C122.853 92.4789 124.24 91.69 126.562 90.0484C128.885 88.4068 130.151 87.306 132.021 85.149C133.898 82.9984 134.764 81.694 135.928 79.2825C137.093 76.8647 137.773 75.5094 137.843 73.0788C137.913 70.6546 137.417 69.1148 136.265 67.1423C135.114 65.1698 133.975 64.3808 132.085 63.2101C130.202 62.0393 128.935 61.543 126.842 61.2885C124.749 61.0404 123.285 61.1931 121.618 61.963C119.951 62.7392 119.143 63.6809 118.513 65.1508C117.883 66.6142 117.813 67.7722 118.475 69.2993C119.13 70.8264 119.862 72.0162 121.815 72.7797C123.762 73.5433 125.258 73.2506 128.229 73.117C131.207 72.977 132.95 72.767 136.685 72.0925C140.42 71.4245 142.654 70.9663 146.898 69.7701C151.142 68.5676 153.489 67.7531 157.905 66.0988C162.321 64.4445 164.701 63.4646 168.97 61.5112C173.24 59.5579 175.454 58.4571 179.246 56.3446C183.038 54.2258 184.788 53.0996 187.931 50.9299C191.081 48.7602 192.532 47.5831 194.975 45.5024C197.418 43.4154 198.57 42.4037 200.141 40.5013C201.713 38.6051 202.445 37.7144 202.833 36.0091C203.221 34.3039 202.967 33.0886 202.095 31.9815C201.223 30.868 200.04 30.2572 198.481 30.4671C196.922 30.6771 195.929 31.2752 194.3 33.0313C192.672 34.7875 192.124 36.27 190.324 39.2605C188.523 42.251 187.499 44.2044 185.303 47.9839C183.102 51.7634 181.766 54.0159 179.322 58.1517C176.879 62.2939 175.556 64.5463 173.093 68.6757C170.624 72.8052 169.333 75.0004 166.991 78.8117C164.65 82.6294 163.435 84.4873 161.373 87.745C159.311 90.9964 158.306 92.4662 156.684 95.0877C155.067 97.7028 154.17 98.7781 153.286 100.833C152.395 102.895 152.179 103.779 152.242 105.389C152.306 106.999 152.65 107.731 153.598 108.895C154.552 110.053 155.335 110.747 156.989 111.205C158.643 111.663 159.757 111.637 161.876 111.186C163.994 110.727 165.07 109.958 167.577 108.927C170.09 107.896 171.592 107.317 174.417 106.032C177.248 104.753 178.731 104.008 181.715 102.519C184.699 101.024 186.296 100.216 189.337 98.5554C192.373 96.9011 193.957 96.0421 196.896 94.2224C199.83 92.4026 201.242 91.3655 204.016 89.463C206.784 87.5605 208.197 86.5425 210.748 84.71C213.3 82.8711 214.547 81.8913 216.761 80.2878C218.982 78.678 220.681 78.1181 221.839 76.6674C222.99 75.2103 222.946 73.9378 222.532 73.0215C222.125 72.0989 221.088 71.5772 219.783 72.0671C218.473 72.5634 217.658 73.4733 215.998 75.4839C214.331 77.4946 213.23 79.2952 211.467 82.1139C209.705 84.9327 208.649 86.7588 207.191 89.5711C205.728 92.3899 204.818 93.7388 204.163 96.2012C203.507 98.67 203.304 99.9552 203.915 101.89C204.532 103.817 205.416 104.899 207.223 105.873C209.037 106.84 210.487 107.075 212.963 106.732C215.438 106.388 216.767 105.535 219.605 104.148C222.443 102.755 224.027 101.775 227.158 99.7962C230.288 97.811 232.089 96.5766 235.264 94.2478C238.446 91.919 240.144 90.4365 243.059 88.1523C245.973 85.8616 247.824 84.6336 249.841 82.8011C251.852 80.9687 252.819 80.0206 253.118 78.9835C253.417 77.9463 252.399 77.3355 251.33 77.6155C250.261 77.8954 249.205 78.6717 247.773 80.3833C246.348 82.0949 245.483 83.7428 244.191 86.1607C242.893 88.5786 241.99 90.1056 241.29 92.4662C240.59 94.8332 240.342 96.0803 240.679 97.9764C241.01 99.8725 241.531 100.776 242.963 101.94C244.395 103.098 245.661 103.919 247.831 103.792C250.007 103.658 251.298 102.653 253.824 101.285C256.35 99.9234 257.629 98.8799 260.461 96.9584C263.286 95.0368 264.991 93.7897 267.963 91.6709C270.928 89.5584 272.563 88.2922 275.299 86.377C278.035 84.4682 279.492 83.5329 281.643 82.1076C283.793 80.6823 285.123 80.1606 286.052 79.2443C286.981 78.3345 286.714 77.6855 286.281 77.5455C285.842 77.4055 284.888 77.5009 283.863 78.5444C282.839 79.5816 282.272 80.7969 281.153 82.7439C280.033 84.6845 279.212 86.148 278.258 88.2604C277.303 90.3665 276.463 91.4673 276.387 93.2934C276.311 95.1195 276.756 96.2839 277.869 97.391C278.983 98.4982 280.065 99.179 281.961 98.8417C283.863 98.5109 284.818 97.3274 287.369 95.724C289.921 94.1206 291.556 92.8798 294.724 90.8246C297.893 88.7631 299.897 87.3569 303.2 85.4417C306.508 83.5201 308.443 82.4257 311.255 81.2359C314.067 80.0524 315.684 80.0015 317.274 79.5179C318.871 79.0407 319.069 78.7544 319.221 78.8435C319.38 78.9326 318.738 79.0662 318.05 79.9697C317.363 80.8668 316.644 81.6876 315.785 83.3547C314.933 85.0154 314.373 86.218 313.781 88.2922C313.189 90.3601 312.661 91.6645 312.833 93.707C312.998 95.7494 313.431 96.9329 314.621 98.4918C315.811 100.057 316.752 100.954 318.782 101.508C320.812 102.061 322.11 101.788 324.782 101.272C327.455 100.751 328.988 100.152 332.144 98.9117C335.294 97.6774 337.126 96.8502 340.53 95.075C343.941 93.3061 345.843 92.1672 349.177 90.0484C352.511 87.9359 354.299 86.6506 357.201 84.5C360.102 82.3494 361.623 81.2677 363.678 79.2952C365.733 77.3164 366.834 76.4447 367.477 74.6313C368.119 72.8116 367.846 71.539 366.885 70.2155C365.931 68.8921 364.671 68.0395 362.679 68.0204C360.681 67.9949 359.237 68.7457 356.914 70.101C354.598 71.4626 353.319 72.6843 351.073 74.8158C348.827 76.9474 347.536 78.2645 345.697 80.765C343.858 83.272 342.808 84.6527 341.879 87.3442C340.957 90.0293 340.498 91.7345 341.071 94.2096C341.65 96.6784 342.636 98.0528 344.762 99.7071C346.887 101.361 348.471 101.8 351.703 102.475C354.936 103.156 356.883 103.149 360.917 103.105C364.951 103.06 367.318 102.793 371.873 102.246C376.436 101.699 379.305 101.132 383.708 100.369C388.111 99.5989 390.497 99.179 393.889 98.4155C397.28 97.6519 399.424 97.3592 400.678 96.5448C401.931 95.7367 401.632 94.5341 400.162 94.3623C398.693 94.1905 396.714 95.0559 393.322 95.6922C389.937 96.3348 387.577 96.8248 383.225 97.5628C378.872 98.3009 376.009 98.9308 371.555 99.3953C367.101 99.8598 364.747 100.006 360.942 99.8916C357.144 99.7834 355.273 99.5289 352.55 98.829C349.82 98.1355 348.764 97.5119 347.313 96.4048C345.869 95.2977 345.595 94.8205 345.321 93.2998C345.041 91.779 345.169 90.7864 345.926 88.7949C346.683 86.8097 347.453 85.4481 349.107 83.3547C350.762 81.2677 352.079 80.0461 354.185 78.3536C356.291 76.6611 357.729 75.9357 359.631 74.8985C361.54 73.8678 362.641 73.8169 363.704 73.187C364.76 72.557 364.932 71.8699 364.925 71.7617C364.925 71.6535 364.486 71.6853 363.678 72.6461C362.87 73.6005 362.596 74.7077 360.891 76.5529C359.192 78.3981 357.85 79.7088 355.171 81.8722C352.486 84.0355 350.711 85.3335 347.478 87.3633C344.252 89.393 342.356 90.4747 339.022 92.0208C335.695 93.5734 333.837 94.2415 330.833 95.1132C327.836 95.9785 326.227 96.1503 324.032 96.3793C321.83 96.6084 321.016 96.3539 319.845 96.2585C318.674 96.163 318.426 96.3221 318.178 95.9021C317.923 95.4822 318.171 95.2277 318.585 94.1587C318.992 93.0898 319.508 92.2435 320.239 90.5638C320.965 88.884 321.709 87.7387 322.224 85.7726C322.734 83.8065 323.039 82.5466 322.791 80.7396C322.543 78.9326 322.25 77.8382 320.99 76.7374C319.73 75.6366 318.725 75.0003 316.479 75.2358C314.233 75.4712 312.744 76.4638 309.747 77.9145C306.756 79.3652 304.905 80.5487 301.501 82.4766C298.103 84.4046 296.042 85.7153 292.752 87.5414C289.456 89.3739 287.573 90.3347 285.04 91.6327C282.502 92.9307 281.184 93.1725 280.065 94.0251C278.951 94.8777 279.187 95.6794 279.466 95.8958C279.74 96.1121 280.542 96.0358 281.452 95.1004C282.355 94.1715 282.883 93.1025 283.997 91.2509C285.11 89.393 285.995 87.9359 287.006 85.8235C288.024 83.7174 288.902 82.5339 289.068 80.6887C289.233 78.8435 288.82 77.6664 287.827 76.6101C286.841 75.5539 285.836 74.9876 284.118 75.4012C282.4 75.8212 281.426 77.0746 279.244 78.6971C277.061 80.3133 275.859 81.4777 273.199 83.4947C270.539 85.5053 268.904 86.7397 265.933 88.7567C262.961 90.7737 261.18 91.9572 258.342 93.5797C255.504 95.2086 254.022 95.9849 251.75 96.882C249.472 97.7792 248.314 97.671 246.965 98.0782C245.61 98.4791 245.343 98.9372 244.993 98.9117C244.643 98.8799 244.91 98.8163 245.216 97.9319C245.521 97.0411 245.655 96.2139 246.52 94.4641C247.385 92.708 248.27 91.3464 249.549 89.1576C250.828 86.9624 252.049 85.569 252.908 83.5011C253.774 81.4331 254.155 80.1733 253.869 78.818C253.576 77.4564 252.8 76.5402 251.451 76.7119C250.102 76.8901 249.218 77.9145 247.112 79.6897C245.012 81.4586 243.676 83.1829 240.927 85.5753C238.178 87.9614 236.492 89.3994 233.368 91.6263C230.25 93.8597 228.43 95.005 225.332 96.7229C222.239 98.4409 220.522 99.2172 217.887 100.216C215.259 101.209 213.968 101.387 212.18 101.705C210.392 102.023 209.8 101.985 208.948 101.82C208.089 101.654 207.98 101.756 207.885 100.884C207.79 100.019 207.866 99.3317 208.477 97.4738C209.094 95.6095 209.571 94.1142 210.958 91.5818C212.345 89.043 213.548 87.3315 215.419 84.7927C217.289 82.2539 218.816 80.8987 220.318 78.888C221.82 76.8774 222.659 76.1011 222.927 74.7458C223.194 73.3842 222.602 72.4998 221.654 72.0862C220.706 71.679 219.707 71.6917 218.186 72.6843C216.672 73.6769 215.998 75.2167 214.076 77.0492C212.154 78.888 210.977 79.9188 208.572 81.8467C206.173 83.7747 204.767 84.7863 202.076 86.6952C199.391 88.5976 198.016 89.6157 195.14 91.3845C192.271 93.1598 190.725 93.9869 187.728 95.5522C184.731 97.1174 183.121 97.8937 180.15 99.2235C177.185 100.547 175.702 101.215 172.883 102.195C170.065 103.175 168.506 103.576 166.05 104.129C163.594 104.676 162.346 104.619 160.597 104.956C158.841 105.294 158.204 105.504 157.282 105.822C156.365 106.14 156.213 106.56 155.996 106.541C155.78 106.522 155.952 106.528 156.213 105.72C156.48 104.905 156.639 104.282 157.32 102.475C158.001 100.674 158.332 99.3571 159.623 96.7039C160.908 94.0442 161.863 92.5108 163.772 89.1894C165.674 85.8744 166.864 83.9719 169.155 80.1224C171.439 76.2729 172.724 74.065 175.206 69.9483C177.694 65.8252 179.03 63.5855 181.575 59.5197C184.114 55.4538 185.501 53.2078 187.919 49.6192C190.33 46.0305 191.558 44.1535 193.645 41.5766C195.732 38.9996 197.017 38.2297 198.36 36.7281C199.702 35.2265 200.084 34.8193 200.364 34.0685C200.644 33.3113 200.129 32.8914 199.76 32.9677C199.391 33.0377 199.104 33.4322 198.506 34.4312C197.908 35.4301 197.94 36.2382 196.776 37.9625C195.618 39.6868 194.803 40.9212 192.703 43.0528C190.604 45.1843 189.223 46.4123 186.271 48.6202C183.325 50.8281 181.632 51.967 177.961 54.0858C174.296 56.2047 172.113 57.3054 167.92 59.2143C163.734 61.1231 161.36 62.0966 157.008 63.6428C152.656 65.1826 150.321 65.9525 146.16 66.926C142.005 67.9058 139.771 68.2558 136.221 68.5357C132.67 68.8157 130.921 68.6885 128.42 68.3322C125.919 67.9822 125.08 67.0532 123.705 66.7733C122.337 66.4869 121.975 66.7733 121.567 66.9132C121.16 67.0532 121.319 67.3205 121.656 67.4732C122 67.6322 122.382 67.6577 123.266 67.6959C124.157 67.734 124.901 67.5241 126.104 67.6577C127.307 67.7913 128.153 67.8931 129.292 68.364C130.431 68.8348 131.099 69.0829 131.799 70.0056C132.499 70.9218 132.829 71.5072 132.804 72.9579C132.779 74.4086 132.524 75.4267 131.671 77.2528C130.819 79.0789 130.106 80.3324 128.541 82.0885C126.976 83.8383 125.818 84.7863 123.858 86.0207C121.898 87.2551 120.581 87.726 118.742 88.2541C116.91 88.7885 116.025 88.6422 114.67 88.674C113.315 88.7122 112.71 88.8204 111.966 88.4322C111.221 88.0441 111.081 87.8723 110.954 86.7461C110.821 85.6199 110.782 84.6972 111.317 82.7948C111.851 80.8859 112.309 79.4925 113.62 77.2146C114.931 74.9431 116 73.4606 117.871 71.4245C119.748 69.382 121.166 68.364 122.986 67.0087C124.806 65.6598 125.932 65.5261 126.963 64.6608C128 63.7955 127.987 63.1337 128.153 62.6756C128.318 62.2175 128.229 62.0457 127.796 62.3829C127.364 62.7202 127.109 63.0319 125.983 64.3618C124.857 65.6916 124.24 66.9641 122.178 69.0257C120.117 71.0936 118.679 72.398 115.675 74.6822C112.678 76.9601 110.814 78.239 107.181 80.4342C103.541 82.623 101.365 83.8637 97.4905 85.6389C93.6155 87.4078 91.4522 88.2541 87.8127 89.2912C84.1668 90.322 82.3597 90.6592 79.2738 90.8183C76.1878 90.9837 74.718 90.7292 72.3892 90.1056C70.0605 89.4821 69.0806 88.9412 67.6235 87.7005C66.1728 86.4598 65.7274 85.7917 65.1166 83.8892C64.5057 81.9931 64.3339 80.7078 64.5821 78.1945C64.8239 75.6748 65.2056 74.0714 66.3446 71.3036C67.4835 68.5358 68.4443 66.9514 70.2768 64.3618C72.1029 61.7657 73.4518 60.3023 75.4943 58.3426C77.5367 56.3764 78.8284 55.6447 80.4955 54.5567C82.1561 53.4686 82.996 53.4177 83.8168 52.8896C84.6376 52.3679 84.5549 52.0752 84.5994 51.9416C84.6376 51.8143 84.1668 51.9034 84.0268 52.2343C83.8868 52.5588 84.0332 52.9851 83.9059 53.5705C83.7786 54.1622 83.8423 54.4358 83.3841 55.1675C82.9197 55.9056 82.5252 56.351 81.5962 57.2418C80.6609 58.1326 80.1773 58.6289 78.7139 59.6342C77.2504 60.6332 76.4042 61.0913 74.279 62.2557C72.1538 63.4137 70.8749 64.0818 68.0816 65.4243C65.2884 66.7669 63.7358 67.4604 60.3127 68.9557C56.8958 70.4573 54.9361 71.2463 50.9911 72.9197C47.0526 74.5995 44.8256 75.5603 40.6071 77.3355C36.3822 79.1171 34.0025 80.1606 29.8858 81.8149C25.7754 83.4692 23.5802 84.4809 20.0425 85.6071C16.5048 86.7334 14.7868 87.0833 12.1908 87.4523C9.59479 87.8214 8.57674 87.5987 7.06876 87.4523C5.56078 87.306 5.30627 87.586 4.64454 86.7143C3.98917 85.8426 3.7092 85.2826 3.77283 83.0938C3.84282 80.9114 4.05279 79.2889 4.97539 75.7894C5.898 72.2898 6.69972 70.0692 8.39222 65.5898C10.0784 61.1104 11.3 58.4189 13.4316 53.3923C15.5567 48.3657 16.8802 45.4897 19.0435 40.4631C21.2069 35.4301 22.3777 32.815 24.2483 28.2529C26.1126 23.6908 26.9907 21.4447 28.3841 17.6397C29.7776 13.8411 30.3884 12.0023 31.2028 9.24721C32.0173 6.48575 32.4245 5.5377 32.4627 3.86429C32.5009 2.19087 32.0809 1.52278 31.3937 0.867415C30.7066 0.21841 29.8412 0.161142 29.0268 0.606538Z" fill="#1F1F1F" stroke="#1F1F1F" stroke-width="0.63628"/>
</svg>
