<svg width="378" height="534" viewBox="0 0 378 534" fill="none" xmlns="http://www.w3.org/2000/svg">
<g filter="url(#filter0_dddd_1943_258)">
<mask id="path-1-outside-1_1943_258" maskUnits="userSpaceOnUse" x="55" y="11" width="267" height="329" fill="black">
<rect fill="white" x="55" y="11" width="267" height="329"/>
<path d="M173.402 51.58C187.306 53.792 181.302 68.96 182.25 83.496C183.514 98.98 188.254 106.564 186.358 127.104C184.462 147.96 170.242 164.392 167.398 179.56C165.186 191.884 168.978 201.996 168.978 214.952C168.978 223.484 163.922 235.492 163.922 244.656C163.922 258.56 172.138 264.88 187.938 264.88C204.37 264.88 215.114 255.084 215.114 239.6C215.114 231.7 212.902 223.484 214.166 216.532C216.062 207.052 222.698 201.996 224.278 189.672C226.174 175.136 216.062 159.968 219.854 140.692C223.33 122.364 243.238 108.46 241.026 99.612C238.498 89.816 218.59 97.084 217.01 85.708C215.746 76.544 232.81 73.068 241.026 66.116C249.242 59.164 249.874 47.788 258.406 48.104C265.042 48.42 269.466 59.796 267.886 78.756C265.99 105.3 251.454 127.42 249.558 145.432C247.662 163.128 251.77 175.136 249.874 190.62C248.61 200.732 240.394 221.272 240.394 236.44C240.394 243.708 243.87 254.452 251.138 254.452C257.142 254.452 263.462 245.92 271.678 245.92C279.262 245.92 284.95 253.504 284.95 262.036C284.95 271.516 278.314 282.26 260.302 286.052C236.918 291.108 212.902 285.42 193.626 285.42C172.454 285.42 165.502 295.848 154.442 297.428C144.33 299.008 136.746 294.9 128.214 295.848C119.998 296.48 116.522 302.168 107.358 302.168C98.5101 302.168 92.5061 296.164 92.5061 288.264C92.5061 276.256 104.83 271.832 118.418 271.832C134.534 271.832 141.802 264.564 141.802 249.712C141.802 233.912 137.062 215.268 137.062 200.1C137.062 177.98 150.966 169.132 153.178 155.228C154.758 145.432 150.966 138.164 151.282 130.264C151.598 120.468 163.606 107.512 157.918 102.456C153.178 98.032 145.91 109.724 136.114 110.988C125.054 112.568 120.314 99.928 127.898 90.764C134.218 82.864 146.858 83.496 153.494 73.068C159.182 64.22 162.026 49.684 173.402 51.58Z"/>
</mask>
<path d="M173.402 51.58C187.306 53.792 181.302 68.96 182.25 83.496C183.514 98.98 188.254 106.564 186.358 127.104C184.462 147.96 170.242 164.392 167.398 179.56C165.186 191.884 168.978 201.996 168.978 214.952C168.978 223.484 163.922 235.492 163.922 244.656C163.922 258.56 172.138 264.88 187.938 264.88C204.37 264.88 215.114 255.084 215.114 239.6C215.114 231.7 212.902 223.484 214.166 216.532C216.062 207.052 222.698 201.996 224.278 189.672C226.174 175.136 216.062 159.968 219.854 140.692C223.33 122.364 243.238 108.46 241.026 99.612C238.498 89.816 218.59 97.084 217.01 85.708C215.746 76.544 232.81 73.068 241.026 66.116C249.242 59.164 249.874 47.788 258.406 48.104C265.042 48.42 269.466 59.796 267.886 78.756C265.99 105.3 251.454 127.42 249.558 145.432C247.662 163.128 251.77 175.136 249.874 190.62C248.61 200.732 240.394 221.272 240.394 236.44C240.394 243.708 243.87 254.452 251.138 254.452C257.142 254.452 263.462 245.92 271.678 245.92C279.262 245.92 284.95 253.504 284.95 262.036C284.95 271.516 278.314 282.26 260.302 286.052C236.918 291.108 212.902 285.42 193.626 285.42C172.454 285.42 165.502 295.848 154.442 297.428C144.33 299.008 136.746 294.9 128.214 295.848C119.998 296.48 116.522 302.168 107.358 302.168C98.5101 302.168 92.5061 296.164 92.5061 288.264C92.5061 276.256 104.83 271.832 118.418 271.832C134.534 271.832 141.802 264.564 141.802 249.712C141.802 233.912 137.062 215.268 137.062 200.1C137.062 177.98 150.966 169.132 153.178 155.228C154.758 145.432 150.966 138.164 151.282 130.264C151.598 120.468 163.606 107.512 157.918 102.456C153.178 98.032 145.91 109.724 136.114 110.988C125.054 112.568 120.314 99.928 127.898 90.764C134.218 82.864 146.858 83.496 153.494 73.068C159.182 64.22 162.026 49.684 173.402 51.58Z" fill="white"/>
<path d="M173.402 51.58L167.341 87.9451L167.475 87.9674L167.61 87.9888L173.402 51.58ZM182.25 83.496L145.462 85.8952L145.481 86.1956L145.506 86.4956L182.25 83.496ZM186.358 127.104L149.648 123.715L149.645 123.741L149.643 123.766L186.358 127.104ZM167.398 179.56L131.163 172.766L131.137 172.906L131.111 173.047L167.398 179.56ZM214.166 216.532L178.015 209.302L177.952 209.619L177.894 209.937L214.166 216.532ZM224.278 189.672L187.721 184.904L187.716 184.944L187.711 184.984L224.278 189.672ZM219.854 140.692L256.027 147.808L256.052 147.685L256.075 147.562L219.854 140.692ZM241.026 99.612L276.792 90.6705L276.758 90.535L276.723 90.3998L241.026 99.612ZM217.01 85.708L180.489 90.7454L180.492 90.7625L180.494 90.7797L217.01 85.708ZM241.026 66.116L217.212 37.9725L217.212 37.9725L241.026 66.116ZM258.406 48.104L260.16 11.2791L259.965 11.2698L259.771 11.2626L258.406 48.104ZM267.886 78.756L231.147 75.6944L231.129 75.9118L231.113 76.1294L267.886 78.756ZM249.558 145.432L286.215 149.36L286.219 149.325L286.222 149.291L249.558 145.432ZM249.874 190.62L286.456 195.193L286.462 195.147L286.467 195.101L249.874 190.62ZM260.302 286.052L252.707 249.976L252.609 249.997L252.511 250.018L260.302 286.052ZM154.442 297.428L149.228 260.932L148.989 260.966L148.751 261.003L154.442 297.428ZM128.214 295.848L131.042 332.606L131.665 332.558L132.285 332.489L128.214 295.848ZM153.178 155.228L116.782 149.358L116.776 149.397L116.769 149.436L153.178 155.228ZM151.282 130.264L188.119 131.738L188.125 131.595L188.13 131.453L151.282 130.264ZM157.918 102.456L132.763 129.408L133.091 129.713L133.425 130.01L157.918 102.456ZM136.114 110.988L131.396 74.4245L131.148 74.4565L130.9 74.4919L136.114 110.988ZM127.898 90.764L156.3 114.269L156.495 114.033L156.686 113.794L127.898 90.764ZM153.494 73.068L122.483 53.1321L122.437 53.2035L122.391 53.2752L153.494 73.068ZM173.402 51.58L167.61 87.9888C165.951 87.7249 163.058 87.026 159.71 85.15C156.198 83.1811 153.028 80.3823 150.568 76.9556C148.212 73.6735 147.066 70.6027 146.51 68.5773C145.977 66.635 145.896 65.3264 145.885 65.1393C145.873 64.9326 145.898 65.1768 145.859 66.2182C145.818 67.3135 145.744 68.4725 145.624 70.456C145.419 73.8278 145.055 79.6538 145.462 85.8952L182.25 83.496L219.039 81.0968C218.972 80.0702 219.002 78.5492 219.222 74.9196C219.379 72.3236 219.828 66.3858 219.484 60.6937C219.143 55.0393 217.843 44.2326 210.466 33.9563C202.078 22.2719 190.064 16.9004 179.194 15.1712L173.402 51.58ZM182.25 83.496L145.506 86.4956C146.311 96.365 148.634 106.633 149.161 109.683C149.82 113.493 150.246 117.228 149.648 123.715L186.358 127.104L223.069 130.493C224.366 116.44 223.371 106.113 221.817 97.1251C220.132 87.3767 219.453 86.111 218.995 80.4965L182.25 83.496ZM186.358 127.104L149.643 123.766C149.339 127.114 147.944 131.319 144.019 139.467C142.451 142.722 139.649 148.285 137.558 153.029C135.322 158.103 132.63 164.941 131.163 172.766L167.398 179.56L203.633 186.354C203.588 186.595 203.74 185.691 205.029 182.766C206.464 179.511 207.868 176.819 210.448 171.463C214.819 162.389 221.482 147.95 223.073 130.442L186.358 127.104ZM167.398 179.56L131.111 173.047C129.026 184.668 129.954 194.631 130.746 201.341C131.651 209.002 132.111 211.327 132.111 214.952H168.978H205.845C205.845 205.621 204.41 196.412 203.971 192.697C203.42 188.031 203.559 186.776 203.685 186.073L167.398 179.56ZM168.978 214.952H132.111C132.111 213.735 132.263 213.495 131.983 214.953C131.71 216.372 131.313 218.026 130.621 220.881C130.02 223.361 129.151 226.93 128.467 230.605C127.787 234.261 127.055 239.197 127.055 244.656H163.922H200.789C200.789 245.533 200.689 245.532 200.957 244.092C201.221 242.672 201.616 240.987 202.279 238.253C202.851 235.894 203.718 232.373 204.393 228.855C205.062 225.376 205.845 220.435 205.845 214.952H168.978ZM163.922 244.656H127.055C127.055 259.091 131.64 276.146 146.569 288.44C160.066 299.556 176.137 301.747 187.938 301.747V264.88V228.013C183.939 228.013 188.003 227.044 193.442 231.524C196.39 233.951 198.495 237.015 199.692 240.013C200.788 242.76 200.789 244.591 200.789 244.656H163.922ZM187.938 264.88V301.747C203.401 301.747 219.809 297.055 232.722 285.11C245.945 272.879 251.981 256.265 251.981 239.6H215.114H178.247C178.247 239.189 178.326 237.913 179.047 236.147C179.788 234.333 181.007 232.506 182.654 230.983C186.087 227.807 188.908 228.013 187.938 228.013V264.88ZM215.114 239.6H251.981C251.981 235.981 251.73 232.701 251.492 230.18C251.372 228.906 251.241 227.69 251.132 226.684C251.015 225.603 250.927 224.807 250.846 224.005C250.683 222.394 250.648 221.684 250.643 221.375C250.639 221.095 250.677 221.811 250.438 223.127L214.166 216.532L177.894 209.937C176.249 218.985 177.075 227.343 177.486 231.416C178.066 237.16 178.247 238.105 178.247 239.6H215.114ZM214.166 216.532L250.317 223.762C249.98 225.446 248.873 227.231 251.986 221.299C254.796 215.943 259.225 206.999 260.845 194.36L224.278 189.672L187.711 184.984C187.702 185.054 187.7 185.041 187.716 184.976C187.733 184.911 187.746 184.879 187.734 184.909C187.688 185.035 187.518 185.47 186.696 187.038C185.622 189.085 180.248 198.138 178.015 209.302L214.166 216.532ZM224.278 189.672L260.835 194.44C261.952 185.877 261.165 178.27 260.228 172.59C259.369 167.394 257.957 161.666 257.31 158.812C255.668 151.567 255.715 149.398 256.027 147.808L219.854 140.692L183.681 133.576C180.201 151.262 183.408 166.315 185.4 175.107C186.57 180.271 187.093 182.266 187.479 184.604C187.786 186.459 187.552 186.199 187.721 184.904L224.278 189.672ZM219.854 140.692L256.075 147.562C255.987 148.027 256.263 146.484 262.107 138.663C264.006 136.122 268.16 130.741 271.197 125.393C273.652 121.07 281.009 107.539 276.792 90.6705L241.026 99.612L205.26 108.553C203.629 102.027 204.475 96.6336 205.291 93.5952C206.061 90.7335 207.038 89.0588 207.083 88.9794C207.183 88.8033 207.01 89.1245 206.207 90.2508C205.387 91.399 204.479 92.6036 203.039 94.5314C200.5 97.9299 196.546 103.233 193.013 109.351C189.43 115.556 185.526 123.84 183.633 133.822L219.854 140.692ZM241.026 99.612L276.723 90.3998C274.693 82.5329 270.585 75.5883 264.92 70.127C259.593 64.991 253.927 62.1554 249.795 60.5481C245.71 58.9591 242.006 58.1466 239.669 57.6991C237.43 57.27 235.019 56.9279 234.17 56.7995C232.847 56.5997 232.765 56.5631 233.047 56.6291C233.321 56.6933 235.17 57.1236 237.653 58.3736C240.302 59.7075 244.176 62.2304 247.595 66.6679C251.151 71.2826 252.923 76.2963 253.526 80.6363L217.01 85.708L180.494 90.7797C181.492 97.9638 184.232 105.239 189.189 111.672C194.009 117.927 199.717 121.825 204.495 124.231C209.106 126.552 213.376 127.75 216.226 128.418C219.084 129.088 221.733 129.491 223.155 129.706C225.051 129.992 225.401 130.04 225.797 130.116C226.096 130.173 224.902 129.98 223.064 129.265C221.178 128.532 217.495 126.824 213.746 123.21C209.66 119.271 206.727 114.242 205.329 108.824L241.026 99.612ZM217.01 85.708L253.531 80.6706C254.203 85.5422 253.657 90.5744 251.952 95.22C250.338 99.6206 248.065 102.655 246.481 104.416C244.937 106.132 243.665 107.065 243.317 107.313C242.934 107.587 242.902 107.571 243.514 107.228C244.122 106.886 244.932 106.461 246.252 105.786C247.375 105.213 249.189 104.298 250.866 103.411C254.017 101.744 259.586 98.7049 264.84 94.2595L241.026 66.116L217.212 37.9725C218.358 37.0031 218.713 37.0052 216.394 38.232C215.798 38.547 210.172 41.3875 207.412 42.9372C204.102 44.7961 197.424 48.7019 191.667 55.1002C184.919 62.6002 178.314 74.9724 180.489 90.7454L217.01 85.708ZM241.026 66.116L264.84 94.2595C270.503 89.4678 274.303 84.3758 276.763 80.6538C277.981 78.8115 278.987 77.1198 279.667 75.9629C280.512 74.5263 280.703 74.1837 281.03 73.6496C281.272 73.2554 281.05 73.6573 280.487 74.3845C279.909 75.1319 278.621 76.6871 276.536 78.3859C274.345 80.1715 271.369 82.0371 267.614 83.3379C263.833 84.6477 260.191 85.062 257.042 84.9454L258.406 48.104L259.771 11.2626C248.166 10.8328 237.87 14.7802 229.956 21.229C223.437 26.5423 219.618 32.7494 218.165 35.1194C213.452 42.8084 215.43 39.4804 217.212 37.9725L241.026 66.116ZM258.406 48.104L256.653 84.9289C247.047 84.4715 240.002 79.8169 236.052 75.6158C232.544 71.8852 231.42 68.6027 231.226 68.0178C230.848 66.8751 231.703 69.0215 231.147 75.6944L267.886 78.756L304.625 81.8176C305.649 69.5305 305.082 56.509 301.228 44.8592C298.184 35.658 287.397 12.5761 260.16 11.2791L258.406 48.104ZM267.886 78.756L231.113 76.1294C230.566 83.784 228.132 91.7312 224.147 102.497C221.057 110.849 214.462 126.682 212.894 141.573L249.558 145.432L286.222 149.291C286.551 146.17 288.172 141.938 293.297 128.09C297.528 116.657 303.31 100.272 304.659 81.3826L267.886 78.756ZM249.558 145.432L212.901 141.505C211.554 154.077 212.405 164.536 212.959 171.699C213.545 179.277 213.715 182.592 213.281 186.139L249.874 190.62L286.467 195.101C287.929 183.164 286.993 172.733 286.473 166.012C285.921 158.876 285.666 154.483 286.215 149.36L249.558 145.432ZM249.874 190.62L213.292 186.047C213.312 185.892 213.148 186.971 212.218 190.487C211.807 192.043 211.34 193.733 210.786 195.735C210.251 197.671 209.642 199.869 209.038 202.135C206.848 210.349 203.527 223.498 203.527 236.44H240.394H277.261C277.261 234.214 278.048 229.509 280.282 221.133C280.784 219.251 281.301 217.381 281.852 215.389C282.384 213.464 282.965 211.367 283.501 209.338C284.467 205.684 285.805 200.404 286.456 195.193L249.874 190.62ZM240.394 236.44H203.527C203.527 244.887 205.35 255.123 209.994 264.513C214.07 272.756 226.413 291.319 251.138 291.319V254.452V217.585C259.175 217.585 265.714 220.779 269.964 224.312C273.745 227.456 275.476 230.592 276.087 231.83C277.176 234.031 277.261 235.261 277.261 236.44H240.394ZM251.138 254.452V291.319C261.139 291.319 268.798 287.84 272.502 285.947C276.049 284.134 279.69 281.722 280.348 281.304C281.906 280.314 281.557 280.624 280.533 281.068C279.272 281.616 276.116 282.787 271.678 282.787V245.92V209.053C263.133 209.053 256.105 211.291 251.16 213.438C246.454 215.482 242.609 217.925 240.809 219.068C238.11 220.783 238.531 220.504 238.948 220.291C239.522 219.998 244.139 217.585 251.138 217.585V254.452ZM271.678 245.92V282.787C262.301 282.787 255.666 277.928 252.37 273.809C249.232 269.887 248.083 265.685 248.083 262.036H284.95H321.817C321.817 241.245 306.875 209.053 271.678 209.053V245.92ZM284.95 262.036H248.083C248.083 258.002 249.576 254.183 251.978 251.515C254.325 248.907 255.729 249.34 252.707 249.976L260.302 286.052L267.897 322.128C282.888 318.972 296.615 312.137 306.783 300.84C317.006 289.481 321.817 275.55 321.817 262.036H284.95ZM260.302 286.052L252.511 250.018C245.929 251.441 238.193 251.566 227.987 250.855C220.044 250.301 204.805 248.553 193.626 248.553V285.42V322.287C201.723 322.287 208.13 323.383 222.861 324.409C235.327 325.278 251.291 325.719 268.093 322.086L260.302 286.052ZM193.626 285.42V248.553C175.976 248.553 163.386 253.171 154.119 257.677C152.123 258.648 150.279 259.615 149.071 260.246C147.683 260.97 147.019 261.309 146.496 261.556C145.571 261.993 146.839 261.273 149.228 260.932L154.442 297.428L159.656 333.924C167.575 332.793 173.86 330.177 178.01 328.215C180.026 327.262 181.914 326.275 183.166 325.623C184.596 324.877 185.478 324.417 186.365 323.986C188.633 322.883 190.104 322.287 193.626 322.287V285.42ZM154.442 297.428L148.751 261.003C149.996 260.809 150.623 261.154 146.852 260.519C145.441 260.282 141.933 259.646 138.513 259.271C134.733 258.856 129.794 258.579 124.143 259.207L128.214 295.848L132.285 332.489C130.319 332.708 128.623 332.222 134.62 333.231C139.301 334.018 148.777 335.627 160.133 333.853L154.442 297.428ZM128.214 295.848L125.387 259.09C112.94 260.047 103.569 265.325 101.826 266.185C100.554 266.813 101.176 266.441 102.36 266.072C103.862 265.604 105.623 265.301 107.358 265.301V302.168V339.035C120.699 339.035 130.151 334.43 134.457 332.305C138.797 330.163 135.272 332.281 131.042 332.606L128.214 295.848ZM107.358 302.168V265.301C111.434 265.301 117.14 266.806 122.07 271.511C127.044 276.259 129.373 282.552 129.373 288.264H92.5061H55.6395C55.6395 318.122 79.7843 339.035 107.358 339.035V302.168ZM92.5061 288.264H129.373C129.373 291.901 128.335 296.447 125.551 300.728C122.925 304.767 119.82 306.929 118.02 307.91C116.314 308.841 115.358 308.962 115.744 308.886C116.052 308.825 116.941 308.699 118.418 308.699V271.832V234.965C108.587 234.965 95.1157 236.415 82.713 243.18C68.2078 251.092 55.6395 266.517 55.6395 288.264H92.5061ZM118.418 271.832V308.699C131.224 308.699 148.17 305.895 161.668 292.953C175.491 279.7 178.669 262.623 178.669 249.712H141.802H104.935C104.935 251.653 104.479 245.636 110.639 239.73C116.475 234.135 121.729 234.965 118.418 234.965V271.832ZM141.802 249.712H178.669C178.669 238.798 177.057 227.578 175.948 219.597C174.666 210.364 173.929 204.625 173.929 200.1H137.062H100.195C100.195 210.743 101.828 221.91 102.916 229.741C104.178 238.824 104.935 244.826 104.935 249.712H141.802ZM137.062 200.1H173.929C173.929 197.897 174.238 196.566 176.473 192.567C177.205 191.258 177.871 190.136 178.974 188.241C179.947 186.568 181.232 184.337 182.492 181.894C185.042 176.95 188.179 169.869 189.587 161.02L153.178 155.228L116.769 149.436C117.071 147.539 117.641 146.778 116.962 148.095C115.522 150.886 115.427 150.659 112.108 156.599C106.838 166.03 100.195 180.183 100.195 200.1H137.062ZM153.178 155.228L189.574 161.098C191.366 149.989 189.924 140.811 189.01 135.628C188.434 132.364 188.332 132.05 188.141 130.751C188.037 130.046 188.166 130.582 188.119 131.738L151.282 130.264L114.445 128.791C114.241 133.896 114.725 138.303 115.194 141.489C115.575 144.08 116.264 147.677 116.398 148.442C116.906 151.317 116.57 150.671 116.782 149.358L153.178 155.228ZM151.282 130.264L188.13 131.453C187.997 135.573 186.847 137.76 187.425 136.331C188.122 134.608 188.417 134.205 190.378 129.916C191.492 127.48 194.524 120.95 195.734 113.351C197.113 104.686 196.931 87.8078 182.411 74.9015L157.918 102.456L133.425 130.01C128.378 125.524 125.038 119.711 123.524 113.685C122.154 108.234 122.581 103.875 122.917 101.762C123.259 99.6095 123.756 98.2886 123.782 98.2175C123.834 98.0756 123.753 98.3122 123.325 99.2487C122.785 100.429 122.502 100.997 121.613 102.902C120.908 104.412 119.981 106.436 119.079 108.664C117.495 112.577 114.726 120.057 114.435 129.075L151.282 130.264ZM157.918 102.456L183.073 75.5044C177.46 70.2654 170.103 66.3399 161.517 65.0458C153.478 63.834 146.744 65.2855 142.369 66.7244C134.922 69.1743 128.955 73.5625 127.859 74.325C126.446 75.3077 126.153 75.5281 125.39 76.045C124.846 76.4136 124.725 76.4732 124.856 76.3992C124.972 76.3338 127.368 74.9442 131.396 74.4245L136.114 110.988L140.832 147.552C149.758 146.4 156.736 143.075 161.118 140.6C165.187 138.302 169.109 135.449 169.965 134.853C170.753 134.305 170.701 134.365 170.306 134.599C169.983 134.79 168.203 135.847 165.409 136.766C162.536 137.711 157.223 138.965 150.527 137.955C143.285 136.864 137.192 133.541 132.763 129.408L157.918 102.456ZM136.114 110.988L130.9 74.4919C135.574 73.8242 141.77 74.4671 147.783 78.0023C153.639 81.4452 157.387 86.4994 159.312 91.3838C163.102 100.996 160.197 109.56 156.3 114.269L127.898 90.764L99.4962 67.259C88.0153 81.1319 83.6887 100.598 90.717 118.426C98.4874 138.137 118.599 150.731 141.328 147.484L136.114 110.988ZM127.898 90.764L156.686 113.794C154.285 116.796 151.91 118.151 151.59 118.329C151.454 118.405 151.593 118.318 152.329 117.982C153.418 117.486 153.706 117.376 155.602 116.53C161.048 114.1 174.966 107.995 184.597 92.8608L153.494 73.068L122.391 53.2752C125.386 48.5686 129.666 47.3621 125.553 49.1978C124.45 49.6903 119.728 51.6733 115.671 53.9364C110.997 56.5438 104.672 60.7817 99.1101 67.7336L127.898 90.764ZM153.494 73.068L184.506 93.0039C187.357 88.5678 189.56 83.904 190.605 81.7389C191.277 80.3468 191.682 79.5106 192.065 78.7681C192.429 78.0603 192.553 77.8752 192.485 77.9815C192.423 78.0804 191.953 78.8221 191.023 79.8569C190.076 80.9109 188.431 82.5158 185.973 84.0675C183.419 85.6794 180.278 87.0467 176.678 87.7598C173.098 88.4692 169.885 88.3691 167.341 87.9451L173.402 51.58L179.463 15.2149C167.87 13.2828 156.37 15.5585 146.611 21.7193C138.016 27.1459 132.89 34.2614 130.145 38.6085C127.388 42.9733 125.22 47.5792 124.204 49.6834C122.761 52.6731 122.475 53.1442 122.483 53.1321L153.494 73.068Z" fill="#CBCBCB" mask="url(#path-1-outside-1_1943_258)"/>
</g>
<defs>
<filter id="filter0_dddd_1943_258" x="0.340626" y="0.697625" width="376.776" height="533.204" filterUnits="userSpaceOnUse" color-interpolation-filters="sRGB">
<feFlood flood-opacity="0" result="BackgroundImageFix"/>
<feColorMatrix in="SourceAlpha" type="matrix" values="0 0 0 0 0 0 0 0 0 0 0 0 0 0 0 0 0 0 127 0" result="hardAlpha"/>
<feOffset dy="7.9"/>
<feGaussianBlur stdDeviation="9.21667"/>
<feColorMatrix type="matrix" values="0 0 0 0 0 0 0 0 0 0 0 0 0 0 0 0 0 0 0.1 0"/>
<feBlend mode="normal" in2="BackgroundImageFix" result="effect1_dropShadow_1943_258"/>
<feColorMatrix in="SourceAlpha" type="matrix" values="0 0 0 0 0 0 0 0 0 0 0 0 0 0 0 0 0 0 127 0" result="hardAlpha"/>
<feOffset dy="34.2333"/>
<feGaussianBlur stdDeviation="17.1167"/>
<feColorMatrix type="matrix" values="0 0 0 0 0 0 0 0 0 0 0 0 0 0 0 0 0 0 0.09 0"/>
<feBlend mode="normal" in2="effect1_dropShadow_1943_258" result="effect2_dropShadow_1943_258"/>
<feColorMatrix in="SourceAlpha" type="matrix" values="0 0 0 0 0 0 0 0 0 0 0 0 0 0 0 0 0 0 127 0" result="hardAlpha"/>
<feOffset dy="79"/>
<feGaussianBlur stdDeviation="23.7"/>
<feColorMatrix type="matrix" values="0 0 0 0 0 0 0 0 0 0 0 0 0 0 0 0 0 0 0.05 0"/>
<feBlend mode="normal" in2="effect2_dropShadow_1943_258" result="effect3_dropShadow_1943_258"/>
<feColorMatrix in="SourceAlpha" type="matrix" values="0 0 0 0 0 0 0 0 0 0 0 0 0 0 0 0 0 0 127 0" result="hardAlpha"/>
<feOffset dy="139.567"/>
<feGaussianBlur stdDeviation="27.65"/>
<feColorMatrix type="matrix" values="0 0 0 0 0 0 0 0 0 0 0 0 0 0 0 0 0 0 0.01 0"/>
<feBlend mode="normal" in2="effect3_dropShadow_1943_258" result="effect4_dropShadow_1943_258"/>
<feBlend mode="normal" in="SourceGraphic" in2="effect4_dropShadow_1943_258" result="shape"/>
</filter>
</defs>
</svg>
