<svg width="330" height="275" viewBox="0 0 330 275" fill="none" xmlns="http://www.w3.org/2000/svg">
<path fill-rule="evenodd" clip-rule="evenodd" d="M307.224 215.463C288.158 232.77 263.648 248.152 233.929 262.434C234.534 262.846 235.111 263.218 235.716 263.575L235.963 263.712L236.225 263.877C239.194 265.568 241.998 266.407 245.036 266.407C248.088 266.407 250.892 265.568 253.861 263.877L254.108 263.726L254.37 263.575C256.294 262.42 258.026 261.128 261.133 258.544L263.58 256.509C267.415 253.32 269.436 251.808 272.171 250.241C276.35 247.849 280.584 246.585 285.216 246.585C289.849 246.585 294.083 247.849 298.262 250.241L298.578 250.433C301.162 251.932 303.169 253.444 306.853 256.509L309.3 258.544C312.338 261.073 314.056 262.365 315.939 263.492L316.324 263.726L316.572 263.864C319.458 265.513 322.166 266.352 325.094 266.407H325.397C325.983 266.359 326.573 266.434 327.129 266.626C327.686 266.818 328.196 267.123 328.628 267.522C329.061 267.921 329.406 268.406 329.642 268.945C329.878 269.484 330 270.066 330 270.654C330 271.243 329.878 271.825 329.642 272.364C329.406 272.903 329.061 273.387 328.628 273.786C328.196 274.185 327.686 274.49 327.129 274.682C326.573 274.874 325.983 274.949 325.397 274.902C320.764 274.902 316.53 273.637 312.338 271.245C311.921 271.005 311.509 270.757 311.101 270.503L310.798 270.311L310.496 270.132L310.221 269.939C307.878 268.343 305.629 266.613 303.485 264.757L301.299 262.943C299.219 261.122 296.999 259.467 294.66 257.994L294.289 257.76L294.028 257.623C291.374 255.996 288.329 255.118 285.216 255.08C282.165 255.08 279.36 255.918 276.405 257.609L276.13 257.76L275.883 257.911C273.958 259.066 272.226 260.358 269.119 262.943L266.947 264.757C264.725 266.689 262.384 268.479 259.937 270.118L259.634 270.311L259.332 270.503L258.095 271.245C254.148 273.612 249.638 274.875 245.036 274.902C240.403 274.902 236.183 273.637 231.991 271.245C231.574 271.005 231.162 270.757 230.754 270.503L230.451 270.311L230.149 270.132L229.791 269.898C227.764 268.517 225.813 267.026 223.949 265.431C223.29 265.122 222.722 264.648 222.3 264.056L220.952 262.943C218.872 261.122 216.652 259.467 214.313 257.994L213.942 257.76L213.681 257.623C211.027 255.996 207.982 255.118 204.869 255.08C201.818 255.08 199.013 255.918 196.044 257.609L195.797 257.76L195.536 257.911C193.611 259.066 191.879 260.358 188.772 262.943L186.601 264.757C184.378 266.689 182.037 268.479 179.59 270.118L179.274 270.311L178.971 270.503L177.734 271.245C173.792 273.61 169.286 274.873 164.689 274.902C160.057 274.902 155.823 273.637 151.644 271.245C151.227 271.005 150.815 270.757 150.407 270.503L150.104 270.311L149.802 270.132L149.513 269.939C147.17 268.343 144.921 266.613 142.777 264.757L140.606 262.943C138.526 261.122 136.306 259.467 133.966 257.994L133.581 257.76L133.334 257.623C130.676 255.994 127.626 255.115 124.509 255.08C121.471 255.08 118.666 255.918 115.697 257.609L115.436 257.76L115.189 257.911C113.25 259.066 111.532 260.358 108.426 262.943L106.254 264.757C104.027 266.689 101.681 268.48 99.2293 270.118L98.9268 270.311L98.6244 270.503L97.3873 271.245C93.2938 273.69 88.6007 274.946 83.8334 274.874C73.5787 273.637 65.7021 269.651 57.853 262.97L57.3719 262.558C56.7258 261.994 55.7498 261.101 54.7326 260.166L52.0383 257.678L50.5675 256.303L50.4163 256.166C49.044 254.799 47.4898 253.629 45.7975 252.688C45.387 252.482 44.9461 252.342 44.4916 252.275H44.4229C42.7871 252.578 41.1513 253.087 39.4605 253.788C39.1548 254.122 38.7974 254.405 38.402 254.626L38.292 254.695C37.7546 254.972 37.164 255.131 36.56 255.162C32.8239 257.239 29.2653 259.621 25.9204 262.283L20.2019 266.737L19.4459 267.328C17.9948 268.454 16.5095 269.536 14.9921 270.572C10.7995 273.417 7.40417 274.902 3.99509 274.902C2.92501 274.835 1.9195 274.367 1.17912 273.591C0.438736 272.816 0.0179053 271.79 0.000558349 270.718C-0.0167886 269.646 0.370624 268.607 1.08552 267.807C1.80043 267.008 2.79027 266.508 3.85763 266.407H3.99509C5.23226 266.407 7.22547 265.554 10.016 263.685L10.5658 263.314C11.6243 262.571 12.8065 261.705 14.2773 260.578L19.5696 256.441L20.3944 255.795C24.0784 252.963 27.35 250.667 30.4292 248.853L21.7278 232.22C21.4016 231.593 21.2369 230.895 21.2486 230.189C21.2603 229.482 21.448 228.79 21.7946 228.174C22.1413 227.559 22.636 227.039 23.234 226.663C23.832 226.287 24.5144 226.066 25.2193 226.02L304.09 208.081C304.969 208.024 305.844 208.241 306.594 208.703C307.345 209.165 307.933 209.849 308.277 210.66C308.621 211.471 308.705 212.369 308.516 213.229C308.328 214.09 307.876 214.87 307.224 215.463ZM291.856 217.387L32.2987 234.075L38.1133 245.196C39.8729 244.578 41.6324 244.124 43.4469 243.822C43.6828 243.779 43.9219 243.756 44.1617 243.753C45.9762 243.753 47.7357 244.193 49.4678 245.031C51.5709 246.035 53.5092 247.492 56.1072 249.842L56.3272 250.049L57.5918 251.231L59.5713 253.073L60.9047 254.296C61.7982 255.121 62.6229 255.863 63.1041 256.276C69.771 262.022 76.1355 265.321 84.4658 266.393H84.617C87.5219 266.315 90.3597 265.501 92.8647 264.029L93.1534 263.877L93.4146 263.726L93.662 263.575C95.6003 262.42 97.3185 261.128 100.425 258.544L102.872 256.509C106.707 253.32 108.728 251.808 111.463 250.241C115.656 247.849 119.876 246.585 124.522 246.585C129.141 246.585 133.375 247.849 137.554 250.241L137.87 250.433C140.454 251.932 142.475 253.444 146.159 256.509L148.592 258.544C151.644 261.073 153.348 262.365 155.245 263.492L155.616 263.726L155.878 263.864C158.833 265.568 161.651 266.407 164.689 266.407C167.741 266.407 170.545 265.568 173.5 263.877L173.762 263.726L174.009 263.575C175.947 262.42 177.679 261.128 180.786 258.544L183.219 256.509C187.068 253.32 189.089 251.808 191.824 250.241C196.003 247.849 200.237 246.585 204.869 246.585C209.502 246.585 213.722 247.849 217.915 250.241L218.258 250.447C220.829 251.946 222.849 253.471 226.547 256.537C252.212 244.468 273.944 231.642 291.567 217.607L291.856 217.387ZM49.9489 0.333827C83.2149 14.5475 119.189 40.4042 148.193 72.2543C182.009 109.369 204.677 152.368 211.935 198.019C212.049 198.761 211.964 199.52 211.691 200.218C211.417 200.917 210.963 201.532 210.376 201.999C209.789 202.466 209.088 202.77 208.346 202.88C207.603 202.99 206.845 202.901 206.148 202.624C173.872 189.634 143.74 185.331 115.56 188.603C91.6551 191.352 69.6885 199.49 49.3578 212.013C45.3164 214.514 40.8351 209.511 43.7905 205.772C69.3036 173.399 79.2697 137.178 75.9981 98.6334C73.3175 67.127 61.8257 35.2631 44.6016 6.40968C44.1508 5.63741 43.9543 4.7429 44.04 3.8528C44.1258 2.96271 44.4893 2.12213 45.0793 1.4501C45.6692 0.77808 46.4556 0.308664 47.3271 0.108324C48.1985 -0.092015 49.111 -0.0131237 49.9351 0.333827H49.9489ZM137.746 33.6548C162.187 41.119 191.247 62.5494 217.227 91.9802C244.5 122.882 266.054 159.804 276.982 196.204C277.205 196.958 277.215 197.759 277.011 198.518C276.807 199.277 276.397 199.965 275.827 200.505C275.256 201.046 274.547 201.418 273.779 201.581C273.01 201.744 272.211 201.691 271.47 201.428L271.168 201.291L265.862 199.174C264.536 198.641 263.202 198.128 261.861 197.634L261.641 197.552C252.294 194.156 245.16 193.551 234.919 196.163C233.838 196.437 232.693 196.277 231.73 195.717C230.766 195.156 230.06 194.241 229.764 193.167C211.124 125.384 179.439 72.5017 134.104 41.2152C130.103 38.4522 133.114 32.2389 137.76 33.6548H137.746ZM58.4716 13.6677L58.5815 13.8739C72.7127 40.5417 82.0602 69.2851 84.4933 97.9049C87.4212 132.449 80.2319 165.344 61.4957 195.393L61.2208 195.82L61.2621 195.806C77.7301 187.819 95.2153 182.486 113.842 180.245L114.598 180.163C141.829 177.001 170.724 180.561 201.323 191.668L202.23 192.012L202.134 191.476C193.982 150.924 173.157 112.613 142.887 79.045L141.925 77.9728C117.388 51.0301 87.7099 28.4862 59.2551 14.0526L58.4716 13.6677ZM167.342 58.1781L168.002 58.838C198.752 90.3856 221.406 133.494 236.376 185.18L236.898 186.994L237.201 186.939C246.96 185.111 254.851 186.073 264.185 189.414L264.556 189.551L265.463 189.881L266.095 190.129L265.752 189.125C254.603 157.412 235.4 125.617 211.646 98.4822L210.849 97.5887C196.828 81.7117 181.941 68.2816 167.548 58.3293L167.342 58.1781Z" fill="#1F1F1F"/>
</svg>
