<svg width="330" height="329" viewBox="0 0 330 329" fill="none" xmlns="http://www.w3.org/2000/svg">
<path d="M251.824 327.436C212.13 331.064 178.939 284.55 153.497 260.958C140.632 353.654 0.555768 344.866 0.651416 250.832C0.699241 211.339 0.651416 114.821 0.651416 76.5681C0.651416 62.8141 4.42951 48.9646 11.5075 37.2164C24.946 14.4364 50.9145 -0.272755 77.3612 0.0137862C117.199 0.0615432 213.133 -0.0339707 251.824 0.0137862C345.941 0.0137862 354.885 140.037 261.867 152.645L306.009 196.725C354.501 242.332 318.107 329.441 251.824 327.436ZM230.446 272.275C257.802 300.453 301.465 256.803 273.296 229.485L196.777 153.075H153.975C153.975 157.229 153.975 192.855 153.975 195.865L220.115 261.912L230.446 272.275ZM46.9929 250.881C46.3713 290.041 108.208 290.185 107.586 250.881V76.5681C108.112 57.0355 87.4521 41.5145 68.8006 47.5319C67.9877 47.7707 67.2226 48.0094 66.5051 48.2959C54.7883 52.6419 46.6582 64.6288 46.9929 77.1412V250.881ZM251.824 106.798C291.136 107.419 291.087 45.6693 251.824 46.2902H147.902C155.793 62.9095 153.784 88.7938 153.927 106.798C159.571 106.798 249.049 106.798 251.824 106.798Z" fill="#1F1F1F"/>
</svg>
