<svg width="330" height="330" viewBox="0 0 330 330" fill="none" xmlns="http://www.w3.org/2000/svg">
<g clip-path="url(#clip0_2207_120)">
<path fill-rule="evenodd" clip-rule="evenodd" d="M4.79582 24.0251C0 33.4382 0 45.7564 0 70.4009V259.599C0 284.244 0 296.565 4.79582 305.975C9.01481 314.254 15.746 320.985 24.0251 325.204C33.4382 330 45.7564 330 70.4009 330H259.599C284.244 330 296.565 330 305.975 325.204C314.254 320.985 320.985 314.254 325.204 305.975C330 296.565 330 284.244 330 259.599V70.4009C330 45.7591 330 33.4355 325.204 24.0251C320.985 15.746 314.254 9.01481 305.975 4.79582C296.565 0 284.244 0 259.599 0H70.4009C45.7591 0 33.4328 0 24.0251 4.79582C15.746 9.01481 9.01481 15.746 4.79582 24.0251ZM285.999 165C285.999 98.175 252.142 44.0009 210.375 44.0009C168.608 44.0009 134.751 98.175 134.751 165H44.0009C44.0009 231.828 77.8584 285.999 119.625 285.999C161.392 285.999 195.249 231.825 195.249 165H285.999Z" fill="#1F1F1F"/>
</g>
<defs>
<clipPath id="clip0_2207_120">
<rect width="330" height="330" fill="white"/>
</clipPath>
</defs>
</svg>
